<svg version="1.1" viewBox="0.0 0.0 600.0 371.0" fill="none" stroke="none" stroke-linecap="square" stroke-miterlimit="10" width="600" height="371" xmlns:xlink="http://www.w3.org/1999/xlink" xmlns="http://www.w3.org/2000/svg"><path fill="#f3f3f3" d="M0 0L600.0 0L600.0 371.0L0 371.0L0 0Z" fill-rule="nonzero"/><path stroke="#272727" stroke-width="1.0" stroke-linecap="butt" d="M106.5 284.5L581.5 284.5" fill-rule="nonzero"/><path stroke="#c0c0c0" stroke-width="1.0" stroke-linecap="butt" d="M106.5 238.5L581.5 238.5" fill-rule="nonzero"/><path stroke="#c0c0c0" stroke-width="1.0" stroke-linecap="butt" d="M106.5 192.5L581.5 192.5" fill-rule="nonzero"/><path stroke="#c0c0c0" stroke-width="1.0" stroke-linecap="butt" d="M106.5 146.5L581.5 146.5" fill-rule="nonzero"/><path stroke="#c0c0c0" stroke-width="1.0" stroke-linecap="butt" d="M106.5 100.5L581.5 100.5" fill-rule="nonzero"/><path stroke="#c0c0c0" stroke-width="1.0" stroke-linecap="butt" d="M106.5 54.5L581.5 54.5" fill-rule="nonzero"/><path stroke="#e0e0e0" stroke-width="1.0" stroke-linecap="butt" d="M106.5 269.5L581.5 269.5" fill-rule="nonzero"/><path stroke="#e0e0e0" stroke-width="1.0" stroke-linecap="butt" d="M106.5 253.5L581.5 253.5" fill-rule="nonzero"/><path stroke="#e0e0e0" stroke-width="1.0" stroke-linecap="butt" d="M106.5 223.5L581.5 223.5" fill-rule="nonzero"/><path stroke="#e0e0e0" stroke-width="1.0" stroke-linecap="butt" d="M106.5 207.5L581.5 207.5" fill-rule="nonzero"/><path stroke="#e0e0e0" stroke-width="1.0" stroke-linecap="butt" d="M106.5 177.5L581.5 177.5" fill-rule="nonzero"/><path stroke="#e0e0e0" stroke-width="1.0" stroke-linecap="butt" d="M106.5 162.5L581.5 162.5" fill-rule="nonzero"/><path stroke="#e0e0e0" stroke-width="1.0" stroke-linecap="butt" d="M106.5 131.5L581.5 131.5" fill-rule="nonzero"/><path stroke="#e0e0e0" stroke-width="1.0" stroke-linecap="butt" d="M106.5 116.5L581.5 116.5" fill-rule="nonzero"/><path stroke="#e0e0e0" stroke-width="1.0" stroke-linecap="butt" d="M106.5 85.5L581.5 85.5" fill-rule="nonzero"/><path stroke="#e0e0e0" stroke-width="1.0" stroke-linecap="butt" d="M106.5 70.5L581.5 70.5" fill-rule="nonzero"/><path stroke="#000000" stroke-width="1.0" stroke-linecap="butt" d="M106.5 284.5L106.5 54.5" fill-rule="nonzero"/><clipPath id="id_0"><path d="M106.55 54.916668L581.45 54.916668L581.45 284.45L106.55 284.45L106.55 54.916668Z" clip-rule="nonzero"/></clipPath><path stroke="#ff5e5e" stroke-width="1.0" stroke-linecap="butt" clip-path="url(#id_0)" d="M154.04 171.0789L154.04 166.4515" fill-rule="nonzero"/><path stroke="#ff5e5e" stroke-width="1.0" stroke-linecap="butt" clip-path="url(#id_0)" d="M148.04 171.0789L160.04 171.0789" fill-rule="nonzero"/><path stroke="#ff5e5e" stroke-width="1.0" stroke-linecap="butt" clip-path="url(#id_0)" d="M148.04 166.4515L160.04 166.4515" fill-rule="nonzero"/><path stroke="#ff5e5e" stroke-width="1.0" stroke-linecap="butt" clip-path="url(#id_0)" d="M249.02 118.8922L249.02 112.134735" fill-rule="nonzero"/><path stroke="#ff5e5e" stroke-width="1.0" stroke-linecap="butt" clip-path="url(#id_0)" d="M243.02 118.8922L255.02 118.8922" fill-rule="nonzero"/><path stroke="#ff5e5e" stroke-width="1.0" stroke-linecap="butt" clip-path="url(#id_0)" d="M243.02 112.134735L255.02 112.134735" fill-rule="nonzero"/><path stroke="#ff5e5e" stroke-width="1.0" stroke-linecap="butt" clip-path="url(#id_0)" d="M344.0 117.09266L344.0 110.26174" fill-rule="nonzero"/><path stroke="#ff5e5e" stroke-width="1.0" stroke-linecap="butt" clip-path="url(#id_0)" d="M338.0 117.09266L350.0 117.09266" fill-rule="nonzero"/><path stroke="#ff5e5e" stroke-width="1.0" stroke-linecap="butt" clip-path="url(#id_0)" d="M338.0 110.26174L350.0 110.26174" fill-rule="nonzero"/><path stroke="#ff5e5e" stroke-width="1.0" stroke-linecap="butt" clip-path="url(#id_0)" d="M438.98 113.493576L438.98 106.51576" fill-rule="nonzero"/><path stroke="#ff5e5e" stroke-width="1.0" stroke-linecap="butt" clip-path="url(#id_0)" d="M432.98 113.493576L444.98 113.493576" fill-rule="nonzero"/><path stroke="#ff5e5e" stroke-width="1.0" stroke-linecap="butt" clip-path="url(#id_0)" d="M432.98 106.51576L444.98 106.51576" fill-rule="nonzero"/><path stroke="#ff5e5e" stroke-width="1.0" stroke-linecap="butt" clip-path="url(#id_0)" d="M533.96 106.29541L533.96 99.02379" fill-rule="nonzero"/><path stroke="#ff5e5e" stroke-width="1.0" stroke-linecap="butt" clip-path="url(#id_0)" d="M527.96 106.29541L539.96 106.29541" fill-rule="nonzero"/><path stroke="#ff5e5e" stroke-width="1.0" stroke-linecap="butt" clip-path="url(#id_0)" d="M527.96 99.02379L539.96 99.02379" fill-rule="nonzero"/><path stroke="#ff0000" stroke-width="2.0" stroke-linecap="butt" clip-path="url(#id_0)" d="M154.04 168.7652C154.04 168.7652 217.36 124.6948 249.02 115.513466C280.68 106.33213 312.34 114.59534 344.0 113.6772C375.66 112.75906 407.32 111.840935 438.98 110.00467C470.64 108.1684 533.96 102.6596 533.96 102.6596" fill-rule="nonzero"/><path stroke="#ffff00" stroke-width="2.0" stroke-linecap="butt" clip-path="url(#id_0)" d="M154.04 146.73C154.04 146.73 217.36 122.55249 249.02 117.34973C280.68 112.14698 312.34 116.4316 344.0 115.513466C375.66 114.59534 407.32 113.6772 438.98 111.840935C470.64 110.00467 533.96 104.495865 533.96 104.495865" fill-rule="nonzero"/><path stroke="#004561" stroke-width="2.0" stroke-linecap="butt" clip-path="url(#id_0)" d="M154.04 124.6948C154.04 124.6948 217.36 135.10031 249.02 133.87613C280.68 132.65196 312.34 120.716225 344.0 117.34973C375.66 113.983246 407.32 115.513466 438.98 113.6772C470.64 111.840935 533.96 106.33213 533.96 106.33213" fill-rule="nonzero"/><path fill="#ff0000" clip-path="url(#id_0)" d="M157.54 168.7652C157.54 170.6982 155.97299 172.2652 154.04 172.2652C152.10701 172.2652 150.54 170.6982 150.54 168.7652C150.54 166.8322 152.10701 165.2652 154.04 165.2652C155.97299 165.2652 157.54 166.8322 157.54 168.7652Z" fill-rule="nonzero"/><path fill="#ff0000" clip-path="url(#id_0)" d="M252.52 115.513466C252.52 117.446465 250.953 119.013466 249.02 119.013466C247.087 119.013466 245.52 117.446465 245.52 115.513466C245.52 113.58047 247.087 112.013466 249.02 112.013466C250.953 112.013466 252.52 113.58047 252.52 115.513466Z" fill-rule="nonzero"/><path fill="#ff0000" clip-path="url(#id_0)" d="M347.5 113.6772C347.5 115.6102 345.93298 117.1772 344.0 117.1772C342.06702 117.1772 340.5 115.6102 340.5 113.6772C340.5 111.7442 342.06702 110.1772 344.0 110.1772C345.93298 110.1772 347.5 111.7442 347.5 113.6772Z" fill-rule="nonzero"/><path fill="#ff0000" clip-path="url(#id_0)" d="M442.48 110.00467C442.48 111.93766 440.913 113.50467 438.98 113.50467C437.047 113.50467 435.48 111.93766 435.48 110.00467C435.48 108.07167 437.047 106.50467 438.98 106.50467C440.913 106.50467 442.48 108.07167 442.48 110.00467Z" fill-rule="nonzero"/><path fill="#ff0000" clip-path="url(#id_0)" d="M537.46 102.6596C537.46 104.5926 535.893 106.1596 533.96 106.1596C532.027 106.1596 530.46 104.5926 530.46 102.6596C530.46 100.7266 532.027 99.1596 533.96 99.1596C535.893 99.1596 537.46 100.7266 537.46 102.6596Z" fill-rule="nonzero"/><path fill="#ffff00" clip-path="url(#id_0)" d="M157.54 146.73C157.54 148.663 155.97299 150.23 154.04 150.23C152.10701 150.23 150.54 148.663 150.54 146.73C150.54 144.797 152.10701 143.23 154.04 143.23C155.97299 143.23 157.54 144.797 157.54 146.73Z" fill-rule="nonzero"/><path fill="#ffff00" clip-path="url(#id_0)" d="M252.52 117.34973C252.52 119.28273 250.953 120.84973 249.02 120.84973C247.087 120.84973 245.52 119.28273 245.52 117.34973C245.52 115.41674 247.087 113.84973 249.02 113.84973C250.953 113.84973 252.52 115.41674 252.52 117.34973Z" fill-rule="nonzero"/><path fill="#ffff00" clip-path="url(#id_0)" d="M347.5 115.513466C347.5 117.446465 345.93298 119.013466 344.0 119.013466C342.06702 119.013466 340.5 117.446465 340.5 115.513466C340.5 113.58047 342.06702 112.013466 344.0 112.013466C345.93298 112.013466 347.5 113.58047 347.5 115.513466Z" fill-rule="nonzero"/><path fill="#ffff00" clip-path="url(#id_0)" d="M442.48 111.840935C442.48 113.77393 440.913 115.340935 438.98 115.340935C437.047 115.340935 435.48 113.77393 435.48 111.840935C435.48 109.907936 437.047 108.340935 438.98 108.340935C440.913 108.340935 442.48 109.907936 442.48 111.840935Z" fill-rule="nonzero"/><path fill="#ffff00" clip-path="url(#id_0)" d="M537.46 104.495865C537.46 106.42886 535.893 107.995865 533.96 107.995865C532.027 107.995865 530.46 106.42886 530.46 104.495865C530.46 102.562874 532.027 100.995865 533.96 100.995865C535.893 100.995865 537.46 102.562874 537.46 104.495865Z" fill-rule="nonzero"/><path fill="#004561" clip-path="url(#id_0)" d="M157.54 124.6948C157.54 126.6278 155.97299 128.1948 154.04 128.1948C152.10701 128.1948 150.54 126.6278 150.54 124.6948C150.54 122.7618 152.10701 121.1948 154.04 121.1948C155.97299 121.1948 157.54 122.7618 157.54 124.6948Z" fill-rule="nonzero"/><path fill="#004561" clip-path="url(#id_0)" d="M252.52 133.87613C252.52 135.80913 250.953 137.37613 249.02 137.37613C247.087 137.37613 245.52 135.80913 245.52 133.87613C245.52 131.94313 247.087 130.37613 249.02 130.37613C250.953 130.37613 252.52 131.94313 252.52 133.87613Z" fill-rule="nonzero"/><path fill="#004561" clip-path="url(#id_0)" d="M347.5 117.34973C347.5 119.28273 345.93298 120.84973 344.0 120.84973C342.06702 120.84973 340.5 119.28273 340.5 117.34973C340.5 115.41674 342.06702 113.84973 344.0 113.84973C345.93298 113.84973 347.5 115.41674 347.5 117.34973Z" fill-rule="nonzero"/><path fill="#004561" clip-path="url(#id_0)" d="M442.48 113.6772C442.48 115.6102 440.913 117.1772 438.98 117.1772C437.047 117.1772 435.48 115.6102 435.48 113.6772C435.48 111.7442 437.047 110.1772 438.98 110.1772C440.913 110.1772 442.48 111.7442 442.48 113.6772Z" fill-rule="nonzero"/><path fill="#004561" clip-path="url(#id_0)" d="M537.46 106.33213C537.46 108.26513 535.893 109.83213 533.96 109.83213C532.027 109.83213 530.46 108.26513 530.46 106.33213C530.46 104.39914 532.027 102.83213 533.96 102.83213C535.893 102.83213 537.46 104.39914 537.46 106.33213Z" fill-rule="nonzero"/><path stroke="#000000" stroke-width="1.0" stroke-linecap="butt" d="M100.5 284.5L112.5 284.5" fill-rule="nonzero"/><path stroke="#000000" stroke-width="1.0" stroke-linecap="butt" d="M100.5 238.5L112.5 238.5" fill-rule="nonzero"/><path stroke="#000000" stroke-width="1.0" stroke-linecap="butt" d="M100.5 192.5L112.5 192.5" fill-rule="nonzero"/><path stroke="#000000" stroke-width="1.0" stroke-linecap="butt" d="M100.5 146.5L112.5 146.5" fill-rule="nonzero"/><path stroke="#000000" stroke-width="1.0" stroke-linecap="butt" d="M100.5 100.5L112.5 100.5" fill-rule="nonzero"/><path stroke="#000000" stroke-width="1.0" stroke-linecap="butt" d="M100.5 54.5L112.5 54.5" fill-rule="nonzero"/><path fill="#000000" d="M309.04688 341.9969L309.04688 344.65314L313.64062 344.65314L313.64062 343.66876Q313.64062 343.02814 313.89062 342.7469Q314.15625 342.46564 314.54688 342.46564Q314.95312 342.46564 315.20312 342.7469Q315.45312 343.02814 315.45312 343.66876L315.45312 346.45L306.96875 346.45Q306.3125 346.45 306.03125 346.2Q305.76562 345.95 305.76562 345.54376Q305.76562 345.15314 306.04688 344.90314Q306.32812 344.65314 306.96875 344.65314L307.25 344.65314L307.25 337.60626L306.96875 337.60626Q306.3125 337.60626 306.03125 337.35626Q305.76562 337.09064 305.76562 336.7Q305.76562 336.29376 306.03125 336.04376Q306.3125 335.79376 306.96875 335.79376L315.04688 335.79376L315.04688 338.54376Q315.04688 339.1844 314.79688 339.46564Q314.5625 339.73126 314.15625 339.73126Q313.75 339.73126 313.5 339.46564Q313.25 339.1844 313.25 338.54376L313.25 337.60626L309.04688 337.60626L309.04688 340.2L310.64062 340.2Q310.64062 339.4969 310.76562 339.29376Q311.03125 338.8719 311.53125 338.8719Q311.9375 338.8719 312.1875 339.15314Q312.4375 339.41876 312.4375 340.075L312.4375 342.1375Q312.4375 342.73126 312.29688 342.9344Q312.01562 343.34064 311.53125 343.34064Q311.03125 343.34064 310.76562 342.91876Q310.64062 342.71564 310.64062 341.9969L309.04688 341.9969ZM319.67188 345.45L319.67188 348.40314L320.75 348.40314Q321.39062 348.40314 321.67188 348.65314Q321.95312 348.91876 321.95312 349.3094Q321.95312 349.71564 321.67188 349.96564Q321.39062 350.21564 320.75 350.21564L317.5625 350.21564Q316.90625 350.21564 316.625 349.96564Q316.34375 349.71564 316.34375 349.3094Q316.34375 348.91876 316.625 348.65314Q316.90625 348.40314 317.5625 348.40314L317.85938 348.40314L317.85938 340.27814L317.5625 340.27814Q316.90625 340.27814 316.625 340.02814Q316.34375 339.7625 316.34375 339.3719Q316.34375 338.96564 316.625 338.71564Q316.90625 338.46564 317.5625 338.46564L319.67188 338.46564L319.67188 339.09064Q320.29688 338.65314 320.96875 338.45Q321.65625 338.23126 322.35938 338.23126Q324.20312 338.23126 325.5 339.48126Q326.8125 340.73126 326.8125 342.35626Q326.8125 344.1375 325.26562 345.29376Q323.98438 346.2625 322.375 346.2625Q321.6875 346.2625 321.0 346.0594Q320.32812 345.85626 319.67188 345.45ZM325.01562 342.35626Q325.01562 341.98126 324.70312 341.40314Q324.40625 340.8094 323.78125 340.41876Q323.17188 340.02814 322.34375 340.02814Q320.98438 340.02814 320.20312 341.04376Q319.67188 341.73126 319.67188 342.3875Q319.67188 343.10626 320.4375 343.79376Q321.20312 344.46564 322.34375 344.46564Q323.48438 344.46564 324.25 343.79376Q325.01562 343.10626 325.01562 342.35626ZM337.57812 342.60626Q337.57812 343.65314 337.0 344.6219Q336.4375 345.59064 335.29688 346.16876Q334.15625 346.7469 332.92188 346.7469Q331.6875 346.7469 330.5625 346.1844Q329.4375 345.60626 328.84375 344.6375Q328.25 343.65314 328.25 342.59064Q328.25 341.5125 328.84375 340.48126Q329.45312 339.4344 330.5625 338.84064Q331.6875 338.23126 332.92188 338.23126Q334.14062 338.23126 335.28125 338.84064Q336.42188 339.45 337.0 340.48126Q337.57812 341.5125 337.57812 342.60626ZM335.78125 342.6219Q335.78125 341.7469 335.15625 341.0125Q334.29688 340.02814 332.92188 340.02814Q331.6875 340.02814 330.875 340.8094Q330.0625 341.59064 330.0625 342.6219Q330.0625 343.46564 330.875 344.2Q331.70312 344.9344 332.92188 344.9344Q334.125 344.9344 334.95312 344.2Q335.78125 343.46564 335.78125 342.6219ZM346.70312 338.79376Q347.03125 338.48126 347.375 338.48126Q347.76562 338.48126 348.01562 338.7625Q348.26562 339.04376 348.26562 339.6844L348.26562 340.84064Q348.26562 341.4969 348.01562 341.77814Q347.76562 342.04376 347.35938 342.04376Q346.98438 342.04376 346.73438 341.825Q346.54688 341.66876 346.4375 341.1844Q346.34375 340.7 345.9375 340.45Q345.21875 340.02814 344.10938 340.02814Q342.84375 340.02814 342.0625 340.77814Q341.29688 341.52814 341.29688 342.66876Q341.29688 343.73126 342.03125 344.34064Q342.78125 344.95 344.5 344.95Q345.625 344.95 346.32812 344.71564Q346.75 344.575 347.125 344.2469Q347.51562 343.90314 347.8125 343.90314Q348.1875 343.90314 348.45312 344.1844Q348.71875 344.45 348.71875 344.8094Q348.71875 345.41876 347.90625 345.95Q346.6875 346.7469 344.35938 346.7469Q342.25 346.7469 341.07812 345.8719Q339.5 344.71564 339.5 342.6844Q339.5 340.7469 340.78125 339.4969Q342.0625 338.23126 344.14062 338.23126Q344.875 338.23126 345.51562 338.3719Q346.17188 338.5125 346.70312 338.79376ZM353.04688 335.04376L353.04688 338.8875Q353.60938 338.5594 354.17188 338.40314Q354.75 338.23126 355.34375 338.23126Q356.28125 338.23126 357.0 338.5594Q357.73438 338.8719 358.20312 339.5594Q358.6875 340.23126 358.6875 341.2625L358.6875 344.65314Q359.375 344.65314 359.59375 344.77814Q360.01562 345.0594 360.01562 345.5594Q360.01562 345.95 359.73438 346.2Q359.46875 346.45 358.8125 346.45L356.76562 346.45Q356.125 346.45 355.84375 346.2Q355.5625 345.95 355.5625 345.54376Q355.5625 345.0594 355.98438 344.77814Q356.20312 344.6375 356.89062 344.65314L356.89062 341.3875Q356.89062 340.7 356.5625 340.41876Q356.15625 340.02814 355.34375 340.02814Q354.75 340.02814 354.28125 340.2625Q353.82812 340.4969 353.04688 341.27814L353.04688 344.65314Q353.73438 344.65314 353.9375 344.77814Q354.375 345.0594 354.375 345.5594Q354.375 345.95 354.09375 346.2Q353.8125 346.45 353.17188 346.45L351.125 346.45Q350.46875 346.45 350.1875 346.2Q349.90625 345.95 349.90625 345.54376Q349.90625 345.0594 350.34375 344.77814Q350.5625 344.6375 351.23438 344.65314L351.23438 336.85626L350.9375 336.85626Q350.28125 336.85626 350.0 336.60626Q349.73438 336.35626 349.73438 335.95Q349.73438 335.54376 350.0 335.29376Q350.28125 335.04376 350.9375 335.04376L353.04688 335.04376ZM379.5625 338.34064L379.98438 338.34064Q380.625 338.34064 380.90625 338.59064Q381.1875 338.84064 381.1875 339.2469Q381.1875 339.6375 380.90625 339.8875Q380.64062 340.1375 379.98438 340.1375L379.42188 340.1375L379.29688 342.10626L379.60938 342.10626Q380.26562 342.10626 380.53125 342.35626Q380.8125 342.60626 380.8125 343.0125Q380.8125 343.40314 380.53125 343.65314Q380.26562 343.90314 379.625 343.90314L379.17188 343.90314L378.95312 346.9969Q378.9375 347.075 378.82812 347.6219Q378.73438 347.84064 378.5 347.98126Q378.28125 348.1375 378.01562 348.1375Q377.65625 348.1375 377.39062 347.8719Q377.14062 347.60626 377.14062 347.2Q377.14062 347.1219 377.15625 346.85626L377.375 343.90314L376.03125 343.90314L375.8125 346.9969Q375.78125 347.46564 375.75 347.54376Q375.65625 347.8094 375.42188 347.96564Q375.1875 348.1375 374.90625 348.1375Q374.51562 348.1375 374.25 347.8719Q374.0 347.60626 374.0 347.2Q374.0 347.10626 374.01562 346.8719L374.21875 343.90314L373.78125 343.90314Q373.125 343.90314 372.84375 343.65314Q372.57812 343.40314 372.57812 342.9969Q372.57812 342.60626 372.84375 342.35626Q373.125 342.10626 373.78125 342.10626L374.34375 342.10626L374.48438 340.1375L374.15625 340.1375Q373.5 340.1375 373.21875 339.8875Q372.95312 339.6375 372.95312 339.23126Q372.95312 338.84064 373.21875 338.59064Q373.5 338.34064 374.14062 338.34064L374.60938 338.34064L374.82812 335.2469Q374.85938 334.79376 374.90625 334.66876Q375.0 334.41876 375.23438 334.2625Q375.46875 334.10626 375.75 334.10626Q376.10938 334.10626 376.375 334.3719Q376.64062 334.6219 376.64062 335.075Q376.64062 335.16876 376.625 335.3719L376.42188 338.34064L377.76562 338.34064L377.96875 335.2469Q378.0 334.60626 378.25 334.35626Q378.5 334.10626 378.89062 334.10626Q379.26562 334.10626 379.53125 334.3719Q379.79688 334.6375 379.79688 335.02814Q379.79688 335.10626 379.78125 335.16876L379.76562 335.3719L379.5625 338.34064ZM377.625 340.1375L376.29688 340.1375L376.15625 342.10626L377.5 342.10626L377.625 340.1375Z" fill-rule="nonzero"/><path fill="#000000" d="M24.706263 243.02708L31.753138 243.02708L31.753138 239.15208L30.050013 239.15208Q29.393763 239.15208 29.112513 238.90208Q28.831263 238.65208 28.831263 238.24583Q28.831263 237.85521 29.112513 237.60521Q29.393763 237.33958 30.050013 237.33958L33.55001 237.33958L33.55001 245.88646Q33.55001 246.52708 33.30001 246.80833Q33.05001 247.08958 32.64376 247.08958Q32.253136 247.08958 32.003136 246.80833Q31.753138 246.52708 31.753138 245.88646L31.753138 244.83958L24.706263 244.83958L24.706263 245.88646Q24.706263 246.52708 24.456263 246.80833Q24.190638 247.08958 23.800013 247.08958Q23.393763 247.08958 23.143763 246.80833Q22.893763 246.52708 22.893763 245.88646L22.893763 241.98021Q22.893763 241.32396 23.143763 241.05833Q23.393763 240.77708 23.800013 240.77708Q24.190638 240.77708 24.456263 241.05833Q24.706263 241.32396 24.706263 241.98021L24.706263 243.02708ZM29.706263 226.60521Q30.753138 226.60521 31.721888 227.18333Q32.690636 227.74583 33.26876 228.88646Q33.846886 230.02708 33.846886 231.26146Q33.846886 232.49583 33.284386 233.62083Q32.70626 234.74583 31.737513 235.33958Q30.753138 235.93333 29.690638 235.93333Q28.612513 235.93333 27.581263 235.33958Q26.534388 234.73021 25.940638 233.62083Q25.331263 232.49583 25.331263 231.26146Q25.331263 230.04271 25.940638 228.90208Q26.550013 227.76146 27.581263 227.18333Q28.612513 226.60521 29.706263 226.60521ZM29.721888 228.40208Q28.846888 228.40208 28.112513 229.02708Q27.128138 229.88646 27.128138 231.26146Q27.128138 232.49583 27.909388 233.30833Q28.690638 234.12083 29.721888 234.12083Q30.565638 234.12083 31.300013 233.30833Q32.034386 232.48021 32.034386 231.26146Q32.034386 230.05833 31.300013 229.23021Q30.565638 228.40208 29.721888 228.40208ZM27.675013 218.33958Q27.409388 218.77708 27.268763 219.26146Q27.128138 219.74583 27.128138 220.26146Q27.128138 221.30833 27.471888 221.93333Q27.628138 222.19896 27.800013 222.19896Q28.003138 222.19896 28.190638 221.83958Q28.331263 221.55833 28.471888 220.57396Q28.721888 218.77708 28.956263 218.07396Q29.284388 217.15208 29.925013 216.65208Q30.565638 216.15208 31.284388 216.15208Q32.253136 216.15208 32.89376 217.01146Q33.846886 218.23021 33.846886 220.18333Q33.846886 220.96458 33.70626 221.63646Q33.565636 222.29271 33.30001 222.83958Q33.42501 222.98021 33.48751 223.13646Q33.534386 223.27708 33.534386 223.43333Q33.534386 223.85521 33.26876 224.10521Q32.98751 224.35521 32.33126 224.35521L31.737513 224.35521Q31.081263 224.35521 30.800013 224.10521Q30.518763 223.85521 30.518763 223.44896Q30.518763 223.12083 30.706263 222.90208Q30.893763 222.68333 31.331263 222.55833Q31.675013 222.15208 31.862513 221.57396Q32.034386 220.99583 32.034386 220.23021Q32.034386 218.99583 31.643763 218.30833Q31.456263 217.98021 31.253138 217.98021Q30.893763 217.98021 30.659388 218.44896Q30.440638 218.91771 30.284388 220.37083Q30.050013 222.54271 29.393763 223.27708Q28.753138 224.01146 27.815638 224.01146Q26.846888 224.01146 26.206263 223.18333Q25.331263 222.07396 25.331263 220.29271Q25.331263 219.66771 25.456263 219.08958Q25.565638 218.51146 25.815638 217.98021Q25.690638 217.82396 25.628138 217.68333Q25.565638 217.52708 25.565638 217.40208Q25.565638 217.02708 25.846888 216.79271Q26.128138 216.54271 26.768763 216.54271L27.206263 216.54271Q27.800013 216.54271 28.018763 216.68333Q28.409388 216.96458 28.409388 217.44896Q28.409388 217.77708 28.221888 218.02708Q28.018763 218.26146 27.675013 218.33958ZM27.675013 207.33958Q27.409388 207.77708 27.268763 208.26146Q27.128138 208.74583 27.128138 209.26146Q27.128138 210.30833 27.471888 210.93333Q27.628138 211.19896 27.800013 211.19896Q28.003138 211.19896 28.190638 210.83958Q28.331263 210.55833 28.471888 209.57396Q28.721888 207.77708 28.956263 207.07396Q29.284388 206.15208 29.925013 205.65208Q30.565638 205.15208 31.284388 205.15208Q32.253136 205.15208 32.89376 206.01146Q33.846886 207.23021 33.846886 209.18333Q33.846886 209.96458 33.70626 210.63646Q33.565636 211.29271 33.30001 211.83958Q33.42501 211.98021 33.48751 212.13646Q33.534386 212.27708 33.534386 212.43333Q33.534386 212.85521 33.26876 213.10521Q32.98751 213.35521 32.33126 213.35521L31.737513 213.35521Q31.081263 213.35521 30.800013 213.10521Q30.518763 212.85521 30.518763 212.44896Q30.518763 212.12083 30.706263 211.90208Q30.893763 211.68333 31.331263 211.55833Q31.675013 211.15208 31.862513 210.57396Q32.034386 209.99583 32.034386 209.23021Q32.034386 207.99583 31.643763 207.30833Q31.456263 206.98021 31.253138 206.98021Q30.893763 206.98021 30.659388 207.44896Q30.440638 207.91771 30.284388 209.37083Q30.050013 211.54271 29.393763 212.27708Q28.753138 213.01146 27.815638 213.01146Q26.846888 213.01146 26.206263 212.18333Q25.331263 211.07396 25.331263 209.29271Q25.331263 208.66771 25.456263 208.08958Q25.565638 207.51146 25.815638 206.98021Q25.690638 206.82396 25.628138 206.68333Q25.565638 206.52708 25.565638 206.40208Q25.565638 206.02708 25.846888 205.79271Q26.128138 205.54271 26.768763 205.54271L27.206263 205.54271Q27.800013 205.54271 28.018763 205.68333Q28.409388 205.96458 28.409388 206.44896Q28.409388 206.77708 28.221888 207.02708Q28.018763 207.26146 27.675013 207.33958ZM22.393763 194.57396L34.83126 200.33958Q35.30001 200.55833 35.440636 200.74583Q35.628136 200.96458 35.628136 201.29271Q35.628136 201.66771 35.36251 201.93333Q35.096886 202.19896 34.76876 202.19896Q34.51876 202.19896 34.065636 201.98021L21.628138 196.19896Q21.159388 195.98021 21.018763 195.80833Q20.846888 195.57396 20.846888 195.26146Q20.846888 194.88646 21.112513 194.62083Q21.362513 194.35521 21.690638 194.35521Q21.925013 194.35521 22.393763 194.57396ZM30.643763 185.07396L30.643763 189.46458L31.753138 189.90208L31.753138 189.46458Q31.753138 188.80833 32.003136 188.52708Q32.253136 188.24583 32.659386 188.24583Q33.05001 188.24583 33.30001 188.52708Q33.55001 188.80833 33.55001 189.46458L33.55001 191.88646Q33.55001 192.52708 33.30001 192.80833Q33.05001 193.08958 32.64376 193.08958Q32.23751 193.08958 31.987513 192.79271Q31.737513 192.51146 31.753138 191.83958L24.706263 189.01146L24.706263 190.18333Q24.706263 190.83958 24.456263 191.12083Q24.190638 191.38646 23.800013 191.38646Q23.393763 191.38646 23.143763 191.12083Q22.893763 190.83958 22.893763 190.18333L22.893763 186.29271L31.753138 182.71458Q31.753138 182.07396 31.893763 181.87083Q32.17501 181.46458 32.659386 181.46458Q33.05001 181.46458 33.30001 181.74583Q33.55001 182.01146 33.55001 182.66771L33.55001 185.08958Q33.55001 185.74583 33.30001 186.02708Q33.05001 186.29271 32.64376 186.29271Q32.253136 186.29271 32.003136 186.02708Q31.753138 185.74583 31.753138 185.08958L31.753138 184.65208L30.643763 185.07396ZM28.846888 185.82396L25.284388 187.27708L28.846888 188.73021L28.846888 185.82396ZM25.893763 173.48021Q25.581263 173.15208 25.581263 172.80833Q25.581263 172.41771 25.862513 172.16771Q26.143763 171.91771 26.784388 171.91771L27.940638 171.91771Q28.596888 171.91771 28.878138 172.16771Q29.143763 172.41771 29.143763 172.82396Q29.143763 173.19896 28.925013 173.44896Q28.768763 173.63646 28.284388 173.74583Q27.800013 173.83958 27.550013 174.24583Q27.128138 174.96458 27.128138 176.07396Q27.128138 177.33958 27.878138 178.12083Q28.628138 178.88646 29.768763 178.88646Q30.831263 178.88646 31.440638 178.15208Q32.05001 177.40208 32.05001 175.68333Q32.05001 174.55833 31.815638 173.85521Q31.675013 173.43333 31.346888 173.05833Q31.003138 172.66771 31.003138 172.37083Q31.003138 171.99583 31.284388 171.73021Q31.550013 171.46458 31.909388 171.46458Q32.51876 171.46458 33.05001 172.27708Q33.846886 173.49583 33.846886 175.82396Q33.846886 177.93333 32.971886 179.10521Q31.815638 180.68333 29.784388 180.68333Q27.846888 180.68333 26.596888 179.40208Q25.331263 178.12083 25.331263 176.04271Q25.331263 175.30833 25.471888 174.66771Q25.612513 174.01146 25.893763 173.48021ZM25.893763 162.48021Q25.581263 162.15208 25.581263 161.80833Q25.581263 161.41771 25.862513 161.16771Q26.143763 160.91771 26.784388 160.91771L27.940638 160.91771Q28.596888 160.91771 28.878138 161.16771Q29.143763 161.41771 29.143763 161.82396Q29.143763 162.19896 28.925013 162.44896Q28.768763 162.63646 28.284388 162.74583Q27.800013 162.83958 27.550013 163.24583Q27.128138 163.96458 27.128138 165.07396Q27.128138 166.33958 27.878138 167.12083Q28.628138 167.88646 29.768763 167.88646Q30.831263 167.88646 31.440638 167.15208Q32.05001 166.40208 32.05001 164.68333Q32.05001 163.55833 31.815638 162.85521Q31.675013 162.43333 31.346888 162.05833Q31.003138 161.66771 31.003138 161.37083Q31.003138 160.99583 31.284388 160.73021Q31.550013 160.46458 31.909388 160.46458Q32.51876 160.46458 33.05001 161.27708Q33.846886 162.49583 33.846886 164.82396Q33.846886 166.93333 32.971886 168.10521Q31.815638 169.68333 29.784388 169.68333Q27.846888 169.68333 26.596888 168.40208Q25.331263 167.12083 25.331263 165.04271Q25.331263 164.30833 25.471888 163.66771Q25.612513 163.01146 25.893763 162.48021ZM25.565638 150.44896L31.753138 150.44896Q31.753138 149.88646 32.003136 149.62083Q32.253136 149.33958 32.659386 149.33958Q33.05001 149.33958 33.30001 149.62083Q33.55001 149.88646 33.55001 150.54271L33.55001 152.26146L33.14376 152.26146Q33.48751 153.02708 33.659386 153.73021Q33.846886 154.43333 33.846886 155.07396Q33.846886 155.94896 33.471886 156.60521Q33.096886 157.26146 32.440636 157.63646Q31.956263 157.90208 31.253138 157.90208L27.378138 157.90208L27.378138 158.21458Q27.378138 158.87083 27.128138 159.15208Q26.862513 159.41771 26.471888 159.41771Q26.065638 159.41771 25.815638 159.15208Q25.565638 158.87083 25.565638 158.21458L25.565638 156.10521L30.925013 156.10521Q31.503138 156.10521 31.768763 155.83958Q32.034386 155.55833 32.034386 154.98021Q32.034386 154.43333 31.831263 153.80833Q31.612513 153.18333 31.050013 152.26146L27.378138 152.26146L27.378138 152.90208Q27.378138 153.55833 27.128138 153.83958Q26.862513 154.10521 26.471888 154.10521Q26.065638 154.10521 25.815638 153.83958Q25.565638 153.55833 25.565638 152.90208L25.565638 150.44896ZM25.565638 143.65208L26.690638 143.65208Q25.878138 142.52708 25.612513 141.87083Q25.331263 141.21458 25.331263 140.63646Q25.331263 139.76146 25.987513 138.93333Q26.425013 138.37083 26.878138 138.37083Q27.268763 138.37083 27.534388 138.63646Q27.800013 138.90208 27.800013 139.29271Q27.800013 139.62083 27.471888 139.99583Q27.128138 140.35521 27.128138 140.65208Q27.128138 141.02708 27.612513 141.77708Q28.081263 142.52708 29.034388 143.65208L31.753138 143.65208L31.753138 141.08958Q31.753138 140.43333 32.003136 140.16771Q32.253136 139.88646 32.659386 139.88646Q33.05001 139.88646 33.30001 140.16771Q33.55001 140.43333 33.55001 141.08958L33.55001 146.52708Q33.55001 147.18333 33.30001 147.46458Q33.05001 147.73021 32.64376 147.73021Q32.253136 147.73021 32.003136 147.46458Q31.753138 147.18333 31.753138 146.52708L31.753138 145.46458L27.378138 145.46458L27.378138 146.10521Q27.378138 146.76146 27.128138 147.04271Q26.862513 147.30833 26.471888 147.30833Q26.065638 147.30833 25.815638 147.04271Q25.565638 146.76146 25.565638 146.10521L25.565638 143.65208ZM33.55001 130.66771L33.128136 130.66771Q33.48751 131.33958 33.659386 132.15208Q33.846886 132.96458 33.846886 133.63646Q33.846886 135.08958 33.08126 135.99583Q32.315636 136.90208 31.378138 136.90208Q30.237513 136.90208 29.268763 135.74583Q28.300013 134.58958 28.300013 132.54271Q28.300013 131.73021 28.471888 130.66771L28.050013 130.66771Q27.643763 130.66771 27.393763 131.01146Q27.128138 131.35521 27.128138 132.32396Q27.128138 133.13646 27.456263 134.40208Q27.565638 134.88646 27.565638 135.13646Q27.565638 135.49583 27.315638 135.76146Q27.050013 136.01146 26.643763 136.01146Q26.409388 136.01146 26.253138 135.91771Q26.081263 135.82396 25.987513 135.66771Q25.878138 135.51146 25.737513 135.01146Q25.550013 134.33958 25.440638 133.65208Q25.331263 132.94896 25.331263 132.38646Q25.331263 130.71458 26.065638 129.79271Q26.784388 128.85521 28.034388 128.85521L31.753138 128.85521L31.753138 128.55833Q31.753138 127.902084 32.003136 127.620834Q32.253136 127.339584 32.659386 127.339584Q33.05001 127.339584 33.30001 127.620834Q33.55001 127.902084 33.55001 128.55833L33.55001 130.66771ZM30.331263 130.66771Q30.112513 131.74583 30.112513 132.65208Q30.112513 133.76146 30.643763 134.54271Q30.987513 135.04271 31.346888 135.04271Q31.596888 135.04271 31.753138 134.79271Q32.05001 134.35521 32.05001 133.58958Q32.05001 132.94896 31.800013 132.13646Q31.534388 131.30833 31.096888 130.66771L30.331263 130.66771ZM25.893763 118.48021Q25.581263 118.152084 25.581263 117.808334Q25.581263 117.41771 25.862513 117.16771Q26.143763 116.91771 26.784388 116.91771L27.940638 116.91771Q28.596888 116.91771 28.878138 117.16771Q29.143763 117.41771 29.143763 117.82396Q29.143763 118.19896 28.925013 118.44896Q28.768763 118.63646 28.284388 118.745834Q27.800013 118.839584 27.550013 119.245834Q27.128138 119.964584 27.128138 121.07396Q27.128138 122.339584 27.878138 123.120834Q28.628138 123.88646 29.768763 123.88646Q30.831263 123.88646 31.440638 123.152084Q32.05001 122.402084 32.05001 120.683334Q32.05001 119.558334 31.815638 118.85521Q31.675013 118.433334 31.346888 118.058334Q31.003138 117.66771 31.003138 117.370834Q31.003138 116.995834 31.284388 116.73021Q31.550013 116.464584 31.909388 116.464584Q32.51876 116.464584 33.05001 117.277084Q33.846886 118.495834 33.846886 120.82396Q33.846886 122.933334 32.971886 124.10521Q31.815638 125.683334 29.784388 125.683334Q27.846888 125.683334 26.596888 124.402084Q25.331263 123.120834 25.331263 121.04271Q25.331263 120.308334 25.471888 119.66771Q25.612513 119.01146 25.893763 118.48021ZM33.48751 111.29271L27.378138 114.402084Q27.315638 114.85521 27.081263 115.089584Q26.831263 115.308334 26.471888 115.308334Q26.065638 115.308334 25.815638 115.027084Q25.565638 114.745834 25.565638 114.10521L25.565638 112.464584Q25.565638 111.808334 25.815638 111.527084Q26.065638 111.245834 26.471888 111.245834Q26.862513 111.245834 27.128138 111.527084Q27.378138 111.808334 27.378138 112.402084L31.503138 110.277084L27.378138 108.16771Q27.378138 108.745834 27.128138 109.027084Q26.862513 109.308334 26.471888 109.308334Q26.065638 109.308334 25.815638 109.027084Q25.565638 108.745834 25.565638 108.10521L25.565638 106.402084Q25.565638 105.76146 25.815638 105.48021Q26.065638 105.19896 26.471888 105.19896Q26.831263 105.19896 27.081263 105.44896Q27.331263 105.683334 27.378138 106.152084L35.503136 110.277084Q35.503136 109.60521 35.64376 109.38646Q35.909386 108.964584 36.409386 108.964584Q36.815636 108.964584 37.065636 109.245834Q37.315636 109.527084 37.315636 110.16771L37.315636 114.10521Q37.315636 114.745834 37.065636 115.027084Q36.815636 115.308334 36.409386 115.308334Q36.01876 115.308334 35.753136 115.027084Q35.503136 114.745834 35.503136 114.10521L35.503136 112.308334L33.48751 111.29271Z" fill-rule="nonzero"/><path fill="#000000" d="M72.40938 283.16876L72.40938 284.3875Q72.40938 285.96564 71.65938 286.90314Q71.06563 287.6219 70.15938 287.6219Q69.72188 287.6219 69.33125 287.45Q68.95625 287.27814 68.69063 286.96564Q68.51875 286.77814 68.31563 286.35626Q68.1125 285.91876 68.03438 285.5594Q67.89375 285.0594 67.89375 284.3875L67.89375 283.16876Q67.89375 281.575 68.64375 280.65314Q69.2375 279.91876 70.14375 279.91876Q70.58125 279.91876 70.95625 280.09064Q71.34688 280.2625 71.6125 280.575Q71.78438 280.77814 71.9875 281.21564Q72.19063 281.6375 72.28438 281.98126Q72.40938 282.48126 72.40938 283.16876ZM71.925 283.23126Q71.925 282.52814 71.72188 281.9344Q71.51875 281.325 71.28438 280.98126Q71.12813 280.7625 70.89375 280.6219Q70.56563 280.41876 70.14375 280.41876Q69.31563 280.41876 68.84688 281.2625Q68.37813 282.10626 68.37813 283.23126L68.37813 284.3094Q68.37813 285.0125 68.58125 285.6219Q68.78438 286.21564 69.03438 286.575Q69.175 286.77814 69.40938 286.91876Q69.7375 287.1375 70.15938 287.1375Q70.9875 287.1375 71.45625 286.29376Q71.925 285.4344 71.925 284.3094L71.925 283.23126ZM77.05 286.04376L77.25313 286.04376Q77.58125 286.04376 77.81563 286.27814Q78.05 286.4969 78.05 286.825Q78.05 287.16876 77.81563 287.40314Q77.58125 287.6219 77.25313 287.6219L77.05 287.6219Q76.72188 287.6219 76.4875 287.40314Q76.25313 287.16876 76.25313 286.84064Q76.25313 286.4969 76.4875 286.27814Q76.72188 286.04376 77.05 286.04376ZM86.40938 283.16876L86.40938 284.3875Q86.40938 285.96564 85.65938 286.90314Q85.06563 287.6219 84.15938 287.6219Q83.72188 287.6219 83.33125 287.45Q82.95625 287.27814 82.69063 286.96564Q82.51875 286.77814 82.31563 286.35626Q82.1125 285.91876 82.03438 285.5594Q81.89375 285.0594 81.89375 284.3875L81.89375 283.16876Q81.89375 281.575 82.64375 280.65314Q83.2375 279.91876 84.14375 279.91876Q84.58125 279.91876 84.95625 280.09064Q85.34688 280.2625 85.6125 280.575Q85.78438 280.77814 85.9875 281.21564Q86.19063 281.6375 86.28438 281.98126Q86.40938 282.48126 86.40938 283.16876ZM85.925 283.23126Q85.925 282.52814 85.72188 281.9344Q85.51875 281.325 85.28438 280.98126Q85.12813 280.7625 84.89375 280.6219Q84.56563 280.41876 84.14375 280.41876Q83.31563 280.41876 82.84688 281.2625Q82.37813 282.10626 82.37813 283.23126L82.37813 284.3094Q82.37813 285.0125 82.58125 285.6219Q82.78438 286.21564 83.03438 286.575Q83.175 286.77814 83.40938 286.91876Q83.7375 287.1375 84.15938 287.1375Q84.9875 287.1375 85.45625 286.29376Q85.925 285.4344 85.925 284.3094L85.925 283.23126ZM93.40938 283.16876L93.40938 284.3875Q93.40938 285.96564 92.65938 286.90314Q92.06563 287.6219 91.15938 287.6219Q90.72188 287.6219 90.33125 287.45Q89.95625 287.27814 89.69063 286.96564Q89.51875 286.77814 89.31563 286.35626Q89.1125 285.91876 89.03438 285.5594Q88.89375 285.0594 88.89375 284.3875L88.89375 283.16876Q88.89375 281.575 89.64375 280.65314Q90.2375 279.91876 91.14375 279.91876Q91.58125 279.91876 91.95625 280.09064Q92.34688 280.2625 92.6125 280.575Q92.78438 280.77814 92.9875 281.21564Q93.19063 281.6375 93.28438 281.98126Q93.40938 282.48126 93.40938 283.16876ZM92.925 283.23126Q92.925 282.52814 92.72188 281.9344Q92.51875 281.325 92.28438 280.98126Q92.12813 280.7625 91.89375 280.6219Q91.56563 280.41876 91.14375 280.41876Q90.31563 280.41876 89.84688 281.2625Q89.37813 282.10626 89.37813 283.23126L89.37813 284.3094Q89.37813 285.0125 89.58125 285.6219Q89.78438 286.21564 90.03438 286.575Q90.175 286.77814 90.40938 286.91876Q90.7375 287.1375 91.15938 287.1375Q91.9875 287.1375 92.45625 286.29376Q92.925 285.4344 92.925 284.3094L92.925 283.23126Z" fill-rule="nonzero"/><path fill="#000000" d="M72.40938 237.26208L72.40938 238.48083Q72.40938 240.05896 71.65938 240.99646Q71.06563 241.71521 70.15938 241.71521Q69.72188 241.71521 69.33125 241.54333Q68.95625 241.37146 68.69063 241.05896Q68.51875 240.87146 68.31563 240.44958Q68.1125 240.01208 68.03438 239.65271Q67.89375 239.15271 67.89375 238.48083L67.89375 237.26208Q67.89375 235.66833 68.64375 234.74646Q69.2375 234.01208 70.14375 234.01208Q70.58125 234.01208 70.95625 234.18396Q71.34688 234.35583 71.6125 234.66833Q71.78438 234.87146 71.9875 235.30896Q72.19063 235.73083 72.28438 236.07458Q72.40938 236.57458 72.40938 237.26208ZM71.925 237.32458Q71.925 236.62146 71.72188 236.02771Q71.51875 235.41833 71.28438 235.07458Q71.12813 234.85583 70.89375 234.71521Q70.56563 234.51208 70.14375 234.51208Q69.31563 234.51208 68.84688 235.35583Q68.37813 236.19958 68.37813 237.32458L68.37813 238.40271Q68.37813 239.10583 68.58125 239.71521Q68.78438 240.30896 69.03438 240.66833Q69.175 240.87146 69.40938 241.01208Q69.7375 241.23083 70.15938 241.23083Q70.9875 241.23083 71.45625 240.38708Q71.925 239.52771 71.925 238.40271L71.925 237.32458ZM77.05 240.13708L77.25313 240.13708Q77.58125 240.13708 77.81563 240.37146Q78.05 240.59021 78.05 240.91833Q78.05 241.26208 77.81563 241.49646Q77.58125 241.71521 77.25313 241.71521L77.05 241.71521Q76.72188 241.71521 76.4875 241.49646Q76.25313 241.26208 76.25313 240.93396Q76.25313 240.59021 76.4875 240.37146Q76.72188 240.13708 77.05 240.13708ZM82.03438 241.04333L85.81563 241.04333L85.81563 240.85583Q85.81563 240.68396 85.87813 240.60583Q85.95625 240.52771 86.06563 240.52771Q86.175 240.52771 86.2375 240.60583Q86.31563 240.68396 86.31563 240.85583L86.31563 241.54333L81.55 241.54333L81.55 240.80896Q83.05 239.46521 84.47188 238.07458Q85.12813 237.41833 85.37813 237.12146Q85.62813 236.80896 85.70625 236.59021Q85.8 236.35583 85.8 236.12146Q85.8 235.48083 85.28438 234.99646Q84.78438 234.51208 84.06563 234.51208Q83.425 234.51208 82.925 234.88708Q82.425 235.24646 82.28438 235.79333Q82.2375 235.93396 82.19063 235.98083Q82.12813 236.02771 82.03438 236.02771Q81.925 236.02771 81.8625 235.96521Q81.8 235.90271 81.8 235.80896Q81.8 235.52771 82.09688 235.04333Q82.40938 234.55896 82.94063 234.29333Q83.4875 234.01208 84.06563 234.01208Q84.9875 234.01208 85.64375 234.65271Q86.3 235.29333 86.3 236.10583Q86.3 236.43396 86.19063 236.73083Q86.08125 237.01208 85.81563 237.35583Q85.55 237.68396 84.8625 238.35583Q83.12813 240.07458 82.03438 241.01208L82.03438 241.04333ZM89.8 234.68396L89.8 237.09021Q90.22188 236.91833 90.6125 236.82458Q91.01875 236.73083 91.37813 236.73083Q92.31563 236.73083 92.925 237.38708Q93.55 238.02771 93.55 239.09021Q93.55 240.26208 92.84688 240.99646Q92.14375 241.71521 91.09688 241.71521Q90.39375 241.71521 89.75313 241.40271Q89.3 241.18396 88.925 240.87146Q88.70625 240.66833 88.70625 240.54333Q88.70625 240.43396 88.76875 240.37146Q88.84688 240.29333 88.94063 240.29333Q89.03438 240.29333 89.14375 240.40271Q90.03438 241.23083 91.06563 241.23083Q91.94063 241.23083 92.50313 240.63708Q93.06563 240.04333 93.06563 239.07458Q93.06563 238.23083 92.56563 237.73083Q92.08125 237.23083 91.33125 237.23083Q90.56563 237.23083 89.8 237.62146Q89.6125 237.71521 89.53438 237.71521Q89.425 237.71521 89.3625 237.65271Q89.3 237.57458 89.3 237.44958L89.3 234.18396L92.7375 234.18396Q92.90938 234.18396 92.9875 234.26208Q93.06563 234.32458 93.06563 234.43396Q93.06563 234.54333 92.9875 234.62146Q92.90938 234.68396 92.7375 234.68396L89.8 234.68396Z" fill-rule="nonzero"/><path fill="#000000" d="M72.40938 191.35542L72.40938 192.57417Q72.40938 194.1523 71.65938 195.0898Q71.06563 195.80855 70.15938 195.80855Q69.72188 195.80855 69.33125 195.63667Q68.95625 195.4648 68.69063 195.1523Q68.51875 194.9648 68.31563 194.54292Q68.1125 194.10542 68.03438 193.74605Q67.89375 193.24605 67.89375 192.57417L67.89375 191.35542Q67.89375 189.76167 68.64375 188.8398Q69.2375 188.10542 70.14375 188.10542Q70.58125 188.10542 70.95625 188.2773Q71.34688 188.44917 71.6125 188.76167Q71.78438 188.9648 71.9875 189.4023Q72.19063 189.82417 72.28438 190.16792Q72.40938 190.66792 72.40938 191.35542ZM71.925 191.41792Q71.925 190.7148 71.72188 190.12105Q71.51875 189.51167 71.28438 189.16792Q71.12813 188.94917 70.89375 188.80855Q70.56563 188.60542 70.14375 188.60542Q69.31563 188.60542 68.84688 189.44917Q68.37813 190.29292 68.37813 191.41792L68.37813 192.49605Q68.37813 193.19917 68.58125 193.80855Q68.78438 194.4023 69.03438 194.76167Q69.175 194.9648 69.40938 195.10542Q69.7375 195.32417 70.15938 195.32417Q70.9875 195.32417 71.45625 194.48042Q71.925 193.62105 71.925 192.49605L71.925 191.41792ZM77.05 194.23042L77.25313 194.23042Q77.58125 194.23042 77.81563 194.4648Q78.05 194.68355 78.05 195.01167Q78.05 195.35542 77.81563 195.5898Q77.58125 195.80855 77.25313 195.80855L77.05 195.80855Q76.72188 195.80855 76.4875 195.5898Q76.25313 195.35542 76.25313 195.0273Q76.25313 194.68355 76.4875 194.4648Q76.72188 194.23042 77.05 194.23042ZM82.8 188.7773L82.8 191.18355Q83.22188 191.01167 83.6125 190.91792Q84.01875 190.82417 84.37813 190.82417Q85.31563 190.82417 85.925 191.48042Q86.55 192.12105 86.55 193.18355Q86.55 194.35542 85.84688 195.0898Q85.14375 195.80855 84.09688 195.80855Q83.39375 195.80855 82.75313 195.49605Q82.3 195.2773 81.925 194.9648Q81.70625 194.76167 81.70625 194.63667Q81.70625 194.5273 81.76875 194.4648Q81.84688 194.38667 81.94063 194.38667Q82.03438 194.38667 82.14375 194.49605Q83.03438 195.32417 84.06563 195.32417Q84.94063 195.32417 85.50313 194.73042Q86.06563 194.13667 86.06563 193.16792Q86.06563 192.32417 85.56563 191.82417Q85.08125 191.32417 84.33125 191.32417Q83.56563 191.32417 82.8 191.7148Q82.6125 191.80855 82.53438 191.80855Q82.425 191.80855 82.3625 191.74605Q82.3 191.66792 82.3 191.54292L82.3 188.2773L85.7375 188.2773Q85.90938 188.2773 85.9875 188.35542Q86.06563 188.41792 86.06563 188.5273Q86.06563 188.63667 85.9875 188.7148Q85.90938 188.7773 85.7375 188.7773L82.8 188.7773ZM93.40938 191.35542L93.40938 192.57417Q93.40938 194.1523 92.65938 195.0898Q92.06563 195.80855 91.15938 195.80855Q90.72188 195.80855 90.33125 195.63667Q89.95625 195.4648 89.69063 195.1523Q89.51875 194.9648 89.31563 194.54292Q89.1125 194.10542 89.03438 193.74605Q88.89375 193.24605 88.89375 192.57417L88.89375 191.35542Q88.89375 189.76167 89.64375 188.8398Q90.2375 188.10542 91.14375 188.10542Q91.58125 188.10542 91.95625 188.2773Q92.34688 188.44917 92.6125 188.76167Q92.78438 188.9648 92.9875 189.4023Q93.19063 189.82417 93.28438 190.16792Q93.40938 190.66792 93.40938 191.35542ZM92.925 191.41792Q92.925 190.7148 92.72188 190.12105Q92.51875 189.51167 92.28438 189.16792Q92.12813 188.94917 91.89375 188.80855Q91.56563 188.60542 91.14375 188.60542Q90.31563 188.60542 89.84688 189.44917Q89.37813 190.29292 89.37813 191.41792L89.37813 192.49605Q89.37813 193.19917 89.58125 193.80855Q89.78438 194.4023 90.03438 194.76167Q90.175 194.9648 90.40938 195.10542Q90.7375 195.32417 91.15938 195.32417Q91.9875 195.32417 92.45625 194.48042Q92.925 193.62105 92.925 192.49605L92.925 191.41792Z" fill-rule="nonzero"/><path fill="#000000" d="M72.40938 145.44875L72.40938 146.6675Q72.40938 148.24562 71.65938 149.18312Q71.06563 149.90187 70.15938 149.90187Q69.72188 149.90187 69.33125 149.73Q68.95625 149.55812 68.69063 149.24562Q68.51875 149.05812 68.31563 148.63625Q68.1125 148.19875 68.03438 147.83937Q67.89375 147.33937 67.89375 146.6675L67.89375 145.44875Q67.89375 143.855 68.64375 142.93312Q69.2375 142.19875 70.14375 142.19875Q70.58125 142.19875 70.95625 142.37062Q71.34688 142.5425 71.6125 142.855Q71.78438 143.05812 71.9875 143.49562Q72.19063 143.9175 72.28438 144.26125Q72.40938 144.76125 72.40938 145.44875ZM71.925 145.51125Q71.925 144.80812 71.72188 144.21437Q71.51875 143.605 71.28438 143.26125Q71.12813 143.0425 70.89375 142.90187Q70.56563 142.69875 70.14375 142.69875Q69.31563 142.69875 68.84688 143.5425Q68.37813 144.38625 68.37813 145.51125L68.37813 146.58937Q68.37813 147.2925 68.58125 147.90187Q68.78438 148.49562 69.03438 148.855Q69.175 149.05812 69.40938 149.19875Q69.7375 149.4175 70.15938 149.4175Q70.9875 149.4175 71.45625 148.57375Q71.925 147.71437 71.925 146.58937L71.925 145.51125ZM77.05 148.32375L77.25313 148.32375Q77.58125 148.32375 77.81563 148.55812Q78.05 148.77687 78.05 149.105Q78.05 149.44875 77.81563 149.68312Q77.58125 149.90187 77.25313 149.90187L77.05 149.90187Q76.72188 149.90187 76.4875 149.68312Q76.25313 149.44875 76.25313 149.12062Q76.25313 148.77687 76.4875 148.55812Q76.72188 148.32375 77.05 148.32375ZM85.8 143.08937L85.8 142.87062L82.28438 142.87062L82.28438 143.30812Q82.28438 143.48 82.20625 143.55812Q82.14375 143.63625 82.03438 143.63625Q81.925 143.63625 81.84688 143.55812Q81.78438 143.48 81.78438 143.30812L81.78438 142.37062L86.3 142.37062L86.3 143.1675L84.33125 149.49562Q84.28438 149.63625 84.20625 149.69875Q84.14375 149.74562 84.06563 149.74562Q83.95625 149.74562 83.87813 149.68312Q83.81563 149.605 83.81563 149.51125Q83.81563 149.44875 83.8625 149.33937L85.8 143.08937ZM89.8 142.87062L89.8 145.27687Q90.22188 145.105 90.6125 145.01125Q91.01875 144.9175 91.37813 144.9175Q92.31563 144.9175 92.925 145.57375Q93.55 146.21437 93.55 147.27687Q93.55 148.44875 92.84688 149.18312Q92.14375 149.90187 91.09688 149.90187Q90.39375 149.90187 89.75313 149.58937Q89.3 149.37062 88.925 149.05812Q88.70625 148.855 88.70625 148.73Q88.70625 148.62062 88.76875 148.55812Q88.84688 148.48 88.94063 148.48Q89.03438 148.48 89.14375 148.58937Q90.03438 149.4175 91.06563 149.4175Q91.94063 149.4175 92.50313 148.82375Q93.06563 148.23 93.06563 147.26125Q93.06563 146.4175 92.56563 145.9175Q92.08125 145.4175 91.33125 145.4175Q90.56563 145.4175 89.8 145.80812Q89.6125 145.90187 89.53438 145.90187Q89.425 145.90187 89.3625 145.83937Q89.3 145.76125 89.3 145.63625L89.3 142.37062L92.7375 142.37062Q92.90938 142.37062 92.9875 142.44875Q93.06563 142.51125 93.06563 142.62062Q93.06563 142.73 92.9875 142.80812Q92.90938 142.87062 92.7375 142.87062L89.8 142.87062Z" fill-rule="nonzero"/><path fill="#000000" d="M70.39375 96.37021L70.39375 103.32333L72.08125 103.32333Q72.25313 103.32333 72.33125 103.40146Q72.40938 103.46396 72.40938 103.57333Q72.40938 103.68271 72.33125 103.76083Q72.25313 103.82333 72.08125 103.82333L68.22188 103.82333Q68.03438 103.82333 67.95625 103.76083Q67.89375 103.68271 67.89375 103.57333Q67.89375 103.46396 67.95625 103.40146Q68.03438 103.32333 68.22188 103.32333L69.90938 103.32333L69.90938 97.04208L68.3 97.55771Q68.175 97.58896 68.12813 97.58896Q68.03438 97.58896 67.95625 97.52646Q67.89375 97.44833 67.89375 97.33896Q67.89375 97.26083 67.95625 97.18271Q68.00313 97.13583 68.14375 97.07333L70.39375 96.37021ZM77.05 102.41708L77.25313 102.41708Q77.58125 102.41708 77.81563 102.65146Q78.05 102.87021 78.05 103.19833Q78.05 103.54208 77.81563 103.77646Q77.58125 103.99521 77.25313 103.99521L77.05 103.99521Q76.72188 103.99521 76.4875 103.77646Q76.25313 103.54208 76.25313 103.21396Q76.25313 102.87021 76.4875 102.65146Q76.72188 102.41708 77.05 102.41708ZM86.40938 99.54208L86.40938 100.76083Q86.40938 102.33896 85.65938 103.27646Q85.06563 103.99521 84.15938 103.99521Q83.72188 103.99521 83.33125 103.82333Q82.95625 103.65146 82.69063 103.33896Q82.51875 103.15146 82.31563 102.72958Q82.1125 102.29208 82.03438 101.93271Q81.89375 101.43271 81.89375 100.76083L81.89375 99.54208Q81.89375 97.94833 82.64375 97.02646Q83.2375 96.29208 84.14375 96.29208Q84.58125 96.29208 84.95625 96.46396Q85.34688 96.63583 85.6125 96.94833Q85.78438 97.15146 85.9875 97.58896Q86.19063 98.01083 86.28438 98.35458Q86.40938 98.85458 86.40938 99.54208ZM85.925 99.60458Q85.925 98.90146 85.72188 98.30771Q85.51875 97.69833 85.28438 97.35458Q85.12813 97.13583 84.89375 96.99521Q84.56563 96.79208 84.14375 96.79208Q83.31563 96.79208 82.84688 97.63583Q82.37813 98.47958 82.37813 99.60458L82.37813 100.68271Q82.37813 101.38583 82.58125 101.99521Q82.78438 102.58896 83.03438 102.94833Q83.175 103.15146 83.40938 103.29208Q83.7375 103.51083 84.15938 103.51083Q84.9875 103.51083 85.45625 102.66708Q85.925 101.80771 85.925 100.68271L85.925 99.60458ZM93.40938 99.54208L93.40938 100.76083Q93.40938 102.33896 92.65938 103.27646Q92.06563 103.99521 91.15938 103.99521Q90.72188 103.99521 90.33125 103.82333Q89.95625 103.65146 89.69063 103.33896Q89.51875 103.15146 89.31563 102.72958Q89.1125 102.29208 89.03438 101.93271Q88.89375 101.43271 88.89375 100.76083L88.89375 99.54208Q88.89375 97.94833 89.64375 97.02646Q90.2375 96.29208 91.14375 96.29208Q91.58125 96.29208 91.95625 96.46396Q92.34688 96.63583 92.6125 96.94833Q92.78438 97.15146 92.9875 97.58896Q93.19063 98.01083 93.28438 98.35458Q93.40938 98.85458 93.40938 99.54208ZM92.925 99.60458Q92.925 98.90146 92.72188 98.30771Q92.51875 97.69833 92.28438 97.35458Q92.12813 97.13583 91.89375 96.99521Q91.56563 96.79208 91.14375 96.79208Q90.31563 96.79208 89.84688 97.63583Q89.37813 98.47958 89.37813 99.60458L89.37813 100.68271Q89.37813 101.38583 89.58125 101.99521Q89.78438 102.58896 90.03438 102.94833Q90.175 103.15146 90.40938 103.29208Q90.7375 103.51083 91.15938 103.51083Q91.9875 103.51083 92.45625 102.66708Q92.925 101.80771 92.925 100.68271L92.925 99.60458Z" fill-rule="nonzero"/><path fill="#000000" d="M70.39375 50.463543L70.39375 57.416668L72.08125 57.416668Q72.25313 57.416668 72.33125 57.494793Q72.40938 57.557293 72.40938 57.666668Q72.40938 57.776043 72.33125 57.854168Q72.25313 57.916668 72.08125 57.916668L68.22188 57.916668Q68.03438 57.916668 67.95625 57.854168Q67.89375 57.776043 67.89375 57.666668Q67.89375 57.557293 67.95625 57.494793Q68.03438 57.416668 68.22188 57.416668L69.90938 57.416668L69.90938 51.135418L68.3 51.651043Q68.175 51.682293 68.12813 51.682293Q68.03438 51.682293 67.95625 51.619793Q67.89375 51.541668 67.89375 51.432293Q67.89375 51.354168 67.95625 51.276043Q68.00313 51.229168 68.14375 51.166668L70.39375 50.463543ZM77.05 56.510418L77.25313 56.510418Q77.58125 56.510418 77.81563 56.744793Q78.05 56.963543 78.05 57.291668Q78.05 57.635418 77.81563 57.869793Q77.58125 58.088543 77.25313 58.088543L77.05 58.088543Q76.72188 58.088543 76.4875 57.869793Q76.25313 57.635418 76.25313 57.307293Q76.25313 56.963543 76.4875 56.744793Q76.72188 56.510418 77.05 56.510418ZM82.03438 57.416668L85.81563 57.416668L85.81563 57.229168Q85.81563 57.057293 85.87813 56.979168Q85.95625 56.901043 86.06563 56.901043Q86.175 56.901043 86.2375 56.979168Q86.31563 57.057293 86.31563 57.229168L86.31563 57.916668L81.55 57.916668L81.55 57.182293Q83.05 55.838543 84.47188 54.447918Q85.12813 53.791668 85.37813 53.494793Q85.62813 53.182293 85.70625 52.963543Q85.8 52.729168 85.8 52.494793Q85.8 51.854168 85.28438 51.369793Q84.78438 50.885418 84.06563 50.885418Q83.425 50.885418 82.925 51.260418Q82.425 51.619793 82.28438 52.166668Q82.2375 52.307293 82.19063 52.354168Q82.12813 52.401043 82.03438 52.401043Q81.925 52.401043 81.8625 52.338543Q81.8 52.276043 81.8 52.182293Q81.8 51.901043 82.09688 51.416668Q82.40938 50.932293 82.94063 50.666668Q83.4875 50.385418 84.06563 50.385418Q84.9875 50.385418 85.64375 51.026043Q86.3 51.666668 86.3 52.479168Q86.3 52.807293 86.19063 53.104168Q86.08125 53.385418 85.81563 53.729168Q85.55 54.057293 84.8625 54.729168Q83.12813 56.447918 82.03438 57.385418L82.03438 57.416668ZM89.8 51.057293L89.8 53.463543Q90.22188 53.291668 90.6125 53.197918Q91.01875 53.104168 91.37813 53.104168Q92.31563 53.104168 92.925 53.760418Q93.55 54.401043 93.55 55.463543Q93.55 56.635418 92.84688 57.369793Q92.14375 58.088543 91.09688 58.088543Q90.39375 58.088543 89.75313 57.776043Q89.3 57.557293 88.925 57.244793Q88.70625 57.041668 88.70625 56.916668Q88.70625 56.807293 88.76875 56.744793Q88.84688 56.666668 88.94063 56.666668Q89.03438 56.666668 89.14375 56.776043Q90.03438 57.604168 91.06563 57.604168Q91.94063 57.604168 92.50313 57.010418Q93.06563 56.416668 93.06563 55.447918Q93.06563 54.604168 92.56563 54.104168Q92.08125 53.604168 91.33125 53.604168Q90.56563 53.604168 89.8 53.994793Q89.6125 54.088543 89.53438 54.088543Q89.425 54.088543 89.3625 54.026043Q89.3 53.947918 89.3 53.822918L89.3 50.557293L92.7375 50.557293Q92.90938 50.557293 92.9875 50.635418Q93.06563 50.697918 93.06563 50.807293Q93.06563 50.916668 92.9875 50.994793Q92.90938 51.057293 92.7375 51.057293L89.8 51.057293Z" fill-rule="nonzero"/><path fill="#000000" d="M154.38374 292.9969L154.38374 299.95L156.07124 299.95Q156.24312 299.95 156.32124 300.02814Q156.39937 300.09064 156.39937 300.2Q156.39937 300.3094 156.32124 300.3875Q156.24312 300.45 156.07124 300.45L152.21187 300.45Q152.02437 300.45 151.94624 300.3875Q151.88374 300.3094 151.88374 300.2Q151.88374 300.09064 151.94624 300.02814Q152.02437 299.95 152.21187 299.95L153.89937 299.95L153.89937 293.66876L152.29 294.1844Q152.165 294.21564 152.11812 294.21564Q152.02437 294.21564 151.94624 294.15314Q151.88374 294.075 151.88374 293.96564Q151.88374 293.8875 151.94624 293.8094Q151.99312 293.7625 152.13374 293.7L154.38374 292.9969Z" fill-rule="nonzero"/><path fill="#000000" d="M247.77 293.59064L247.77 295.9969Q248.19188 295.825 248.5825 295.73126Q248.98875 295.6375 249.34813 295.6375Q250.28563 295.6375 250.895 296.29376Q251.52 296.9344 251.52 297.9969Q251.52 299.16876 250.81688 299.90314Q250.11375 300.6219 249.06688 300.6219Q248.36375 300.6219 247.72313 300.3094Q247.27 300.09064 246.895 299.77814Q246.67625 299.575 246.67625 299.45Q246.67625 299.34064 246.73875 299.27814Q246.81688 299.2 246.91063 299.2Q247.00438 299.2 247.11375 299.3094Q248.00438 300.1375 249.03563 300.1375Q249.91063 300.1375 250.47313 299.54376Q251.03563 298.95 251.03563 297.98126Q251.03563 297.1375 250.53563 296.6375Q250.05125 296.1375 249.30125 296.1375Q248.53563 296.1375 247.77 296.52814Q247.5825 296.6219 247.50438 296.6219Q247.395 296.6219 247.3325 296.5594Q247.27 296.48126 247.27 296.35626L247.27 293.09064L250.7075 293.09064Q250.87938 293.09064 250.9575 293.16876Q251.03563 293.23126 251.03563 293.34064Q251.03563 293.45 250.9575 293.52814Q250.87938 293.59064 250.7075 293.59064L247.77 293.59064Z" fill-rule="nonzero"/><path fill="#000000" d="M340.84375 292.9969L340.84375 299.95L342.53125 299.95Q342.70312 299.95 342.78125 300.02814Q342.85938 300.09064 342.85938 300.2Q342.85938 300.3094 342.78125 300.3875Q342.70312 300.45 342.53125 300.45L338.67188 300.45Q338.48438 300.45 338.40625 300.3875Q338.34375 300.3094 338.34375 300.2Q338.34375 300.09064 338.40625 300.02814Q338.48438 299.95 338.67188 299.95L340.35938 299.95L340.35938 293.66876L338.75 294.1844Q338.625 294.21564 338.57812 294.21564Q338.48438 294.21564 338.40625 294.15314Q338.34375 294.075 338.34375 293.96564Q338.34375 293.8875 338.40625 293.8094Q338.45312 293.7625 338.59375 293.7L340.84375 292.9969ZM349.85938 296.16876L349.85938 297.3875Q349.85938 298.96564 349.10938 299.90314Q348.51562 300.6219 347.60938 300.6219Q347.17188 300.6219 346.78125 300.45Q346.40625 300.27814 346.14062 299.96564Q345.96875 299.77814 345.76562 299.35626Q345.5625 298.91876 345.48438 298.5594Q345.34375 298.0594 345.34375 297.3875L345.34375 296.16876Q345.34375 294.575 346.09375 293.65314Q346.6875 292.91876 347.59375 292.91876Q348.03125 292.91876 348.40625 293.09064Q348.79688 293.2625 349.0625 293.575Q349.23438 293.77814 349.4375 294.21564Q349.64062 294.6375 349.73438 294.98126Q349.85938 295.48126 349.85938 296.16876ZM349.375 296.23126Q349.375 295.52814 349.17188 294.9344Q348.96875 294.325 348.73438 293.98126Q348.57812 293.7625 348.34375 293.6219Q348.01562 293.41876 347.59375 293.41876Q346.76562 293.41876 346.29688 294.2625Q345.82812 295.10626 345.82812 296.23126L345.82812 297.3094Q345.82812 298.0125 346.03125 298.6219Q346.23438 299.21564 346.48438 299.575Q346.625 299.77814 346.85938 299.91876Q347.1875 300.1375 347.60938 300.1375Q348.4375 300.1375 348.90625 299.29376Q349.375 298.4344 349.375 297.3094L349.375 296.23126Z" fill-rule="nonzero"/><path fill="#000000" d="M433.4644 299.95L437.24564 299.95L437.24564 299.7625Q437.24564 299.59064 437.30814 299.5125Q437.38626 299.4344 437.49564 299.4344Q437.605 299.4344 437.6675 299.5125Q437.74564 299.59064 437.74564 299.7625L437.74564 300.45L432.98 300.45L432.98 299.71564Q434.48 298.3719 435.9019 296.98126Q436.55814 296.325 436.80814 296.02814Q437.05814 295.71564 437.13626 295.4969Q437.23 295.2625 437.23 295.02814Q437.23 294.3875 436.7144 293.90314Q436.2144 293.41876 435.49564 293.41876Q434.855 293.41876 434.355 293.79376Q433.855 294.15314 433.7144 294.7Q433.6675 294.84064 433.62064 294.8875Q433.55814 294.9344 433.4644 294.9344Q433.355 294.9344 433.2925 294.8719Q433.23 294.8094 433.23 294.71564Q433.23 294.4344 433.5269 293.95Q433.8394 293.46564 434.37064 293.2Q434.9175 292.91876 435.49564 292.91876Q436.4175 292.91876 437.07376 293.5594Q437.73 294.2 437.73 295.0125Q437.73 295.34064 437.62064 295.6375Q437.51126 295.91876 437.24564 296.2625Q436.98 296.59064 436.2925 297.2625Q434.55814 298.98126 433.4644 299.91876L433.4644 299.95ZM444.8394 296.16876L444.8394 297.3875Q444.8394 298.96564 444.0894 299.90314Q443.49564 300.6219 442.5894 300.6219Q442.1519 300.6219 441.76126 300.45Q441.38626 300.27814 441.12064 299.96564Q440.94876 299.77814 440.74564 299.35626Q440.5425 298.91876 440.4644 298.5594Q440.32376 298.0594 440.32376 297.3875L440.32376 296.16876Q440.32376 294.575 441.07376 293.65314Q441.6675 292.91876 442.57376 292.91876Q443.01126 292.91876 443.38626 293.09064Q443.7769 293.2625 444.0425 293.575Q444.2144 293.77814 444.4175 294.21564Q444.62064 294.6375 444.7144 294.98126Q444.8394 295.48126 444.8394 296.16876ZM444.355 296.23126Q444.355 295.52814 444.1519 294.9344Q443.94876 294.325 443.7144 293.98126Q443.55814 293.7625 443.32376 293.6219Q442.99564 293.41876 442.57376 293.41876Q441.74564 293.41876 441.2769 294.2625Q440.80814 295.10626 440.80814 296.23126L440.80814 297.3094Q440.80814 298.0125 441.01126 298.6219Q441.2144 299.21564 441.4644 299.575Q441.605 299.77814 441.8394 299.91876Q442.1675 300.1375 442.5894 300.1375Q443.4175 300.1375 443.88626 299.29376Q444.355 298.4344 444.355 297.3094L444.355 296.23126Z" fill-rule="nonzero"/><path fill="#000000" d="M531.47565 298.3875L528.21 298.3875L528.21 297.825L530.9444 293.09064L531.97565 293.09064L531.97565 297.90314L532.3819 297.90314Q532.5694 297.90314 532.6475 297.96564Q532.72565 298.02814 532.72565 298.15314Q532.72565 298.2469 532.6475 298.325Q532.5694 298.3875 532.3819 298.3875L531.97565 298.3875L531.97565 299.95L532.3819 299.95Q532.5694 299.95 532.6475 300.02814Q532.72565 300.09064 532.72565 300.2Q532.72565 300.3094 532.6475 300.3875Q532.5694 300.45 532.3819 300.45L530.5538 300.45Q530.3819 300.45 530.3038 300.3875Q530.22565 300.3094 530.22565 300.2Q530.22565 300.09064 530.3038 300.02814Q530.3819 299.95 530.5538 299.95L531.47565 299.95L531.47565 298.3875ZM531.47565 297.90314L531.47565 293.59064L531.22565 293.59064L528.72565 297.90314L531.47565 297.90314ZM539.8194 296.16876L539.8194 297.3875Q539.8194 298.96564 539.0694 299.90314Q538.47565 300.6219 537.5694 300.6219Q537.1319 300.6219 536.7413 300.45Q536.3663 300.27814 536.10065 299.96564Q535.9288 299.77814 535.72565 299.35626Q535.5225 298.91876 535.4444 298.5594Q535.3038 298.0594 535.3038 297.3875L535.3038 296.16876Q535.3038 294.575 536.0538 293.65314Q536.6475 292.91876 537.5538 292.91876Q537.9913 292.91876 538.3663 293.09064Q538.7569 293.2625 539.0225 293.575Q539.1944 293.77814 539.3975 294.21564Q539.60065 294.6375 539.6944 294.98126Q539.8194 295.48126 539.8194 296.16876ZM539.335 296.23126Q539.335 295.52814 539.1319 294.9344Q538.9288 294.325 538.6944 293.98126Q538.53815 293.7625 538.3038 293.6219Q537.97565 293.41876 537.5538 293.41876Q536.72565 293.41876 536.2569 294.2625Q535.78815 295.10626 535.78815 296.23126L535.78815 297.3094Q535.78815 298.0125 535.9913 298.6219Q536.1944 299.21564 536.4444 299.575Q536.585 299.77814 536.8194 299.91876Q537.1475 300.1375 537.5694 300.1375Q538.3975 300.1375 538.8663 299.29376Q539.335 298.4344 539.335 297.3094L539.335 296.23126Z" fill-rule="nonzero"/><path fill="#ff0000" d="M146.0 27.05C146.0 30.363708 143.3137 33.05 140.0 33.05C136.6863 33.05 134.0 30.363708 134.0 27.05C134.0 23.736292 136.6863 21.05 140.0 21.05C143.3137 21.05 146.0 23.736292 146.0 27.05Z" fill-rule="nonzero"/><path fill="#1a1a1a" d="M156.01562 24.971874L156.01562 29.14375L156.51562 29.14375Q157.01562 29.14375 157.23438 29.346874Q157.45312 29.534374 157.45312 29.846874Q157.45312 30.159374 157.23438 30.3625Q157.01562 30.55 156.51562 30.55L154.67188 30.55Q154.17188 30.55 153.95312 30.3625Q153.73438 30.159374 153.73438 29.846874Q153.73438 29.534374 153.95312 29.346874Q154.17188 29.14375 154.60938 29.14375L154.60938 23.659374Q154.23438 23.628124 154.04688 23.440624Q153.85938 23.253124 153.85938 22.95625Q153.85938 22.64375 154.07812 22.45625Q154.29688 22.253124 154.79688 22.253124L156.34375 22.26875L158.25 26.4875L160.125 22.253124L161.67188 22.26875Q162.17188 22.26875 162.39062 22.45625Q162.60938 22.64375 162.60938 22.95625Q162.60938 23.253124 162.40625 23.440624Q162.21875 23.628124 161.85938 23.659374L161.85938 29.14375Q162.3125 29.14375 162.51562 29.346874Q162.73438 29.55 162.73438 29.846874Q162.73438 30.159374 162.51562 30.3625Q162.29688 30.55 161.79688 30.55L159.95312 30.55Q159.45312 30.55 159.23438 30.3625Q159.01562 30.159374 159.01562 29.846874Q159.01562 29.534374 159.23438 29.346874Q159.45312 29.14375 159.95312 29.14375L160.45312 29.14375L160.45312 24.971874L158.85938 28.58125L157.64062 28.58125L156.01562 24.971874ZM169.84375 27.565624Q169.84375 28.3625 169.39062 29.128124Q168.95312 29.878124 168.0625 30.33125Q167.17188 30.76875 166.21875 30.76875Q165.25 30.76875 164.375 30.33125Q163.5 29.89375 163.04688 29.14375Q162.59375 28.378124 162.59375 27.55Q162.59375 26.70625 163.04688 25.89375Q163.51562 25.08125 164.39062 24.628124Q165.26562 24.159374 166.21875 24.159374Q167.17188 24.159374 168.04688 24.64375Q168.9375 25.1125 169.39062 25.925Q169.84375 26.721874 169.84375 27.565624ZM168.4375 27.565624Q168.4375 26.89375 167.95312 26.33125Q167.29688 25.565624 166.21875 25.565624Q165.26562 25.565624 164.625 26.175Q163.98438 26.76875 163.98438 27.58125Q163.98438 28.2375 164.625 28.815624Q165.28125 29.378124 166.21875 29.378124Q167.15625 29.378124 167.79688 28.815624Q168.4375 28.2375 168.4375 27.565624ZM172.4375 21.690624L172.4375 24.83125Q172.95312 24.4875 173.46875 24.33125Q174.0 24.159374 174.54688 24.159374Q176.0 24.159374 177.01562 25.175Q178.03125 26.175 178.03125 27.596874Q178.03125 28.95625 177.0625 29.8625Q176.09375 30.76875 174.51562 30.76875Q173.95312 30.76875 173.4375 30.628124Q172.92188 30.4875 172.4375 30.20625L172.4375 30.55L170.79688 30.55Q170.28125 30.55 170.0625 30.3625Q169.85938 30.159374 169.85938 29.846874Q169.85938 29.534374 170.07812 29.346874Q170.29688 29.14375 170.79688 29.14375L171.03125 29.14375L171.03125 23.08125L170.79688 23.08125Q170.28125 23.08125 170.0625 22.89375Q169.85938 22.690624 169.85938 22.378124Q169.85938 22.065624 170.0625 21.878124Q170.28125 21.690624 170.79688 21.690624L172.4375 21.690624ZM176.625 27.628124Q176.625 26.76875 176.01562 26.175Q175.40625 25.565624 174.53125 25.565624Q173.65625 25.565624 173.04688 26.175Q172.4375 26.76875 172.4375 27.6125Q172.4375 28.378124 172.98438 28.878124Q173.53125 29.378124 174.53125 29.378124Q175.53125 29.378124 176.07812 28.878124Q176.625 28.378124 176.625 27.628124ZM182.70312 21.690624L182.70312 23.159374L181.03125 23.159374L181.03125 21.690624L182.70312 21.690624ZM182.89062 24.346874L182.89062 29.14375L184.57812 29.14375Q185.07812 29.14375 185.29688 29.346874Q185.51562 29.534374 185.51562 29.846874Q185.51562 30.159374 185.29688 30.3625Q185.07812 30.55 184.57812 30.55L179.8125 30.55Q179.3125 30.55 179.09375 30.3625Q178.875 30.159374 178.875 29.846874Q178.875 29.534374 179.09375 29.346874Q179.3125 29.14375 179.8125 29.14375L181.5 29.14375L181.5 25.7375L180.35938 25.7375Q179.85938 25.7375 179.64062 25.55Q179.42188 25.346874 179.42188 25.034374Q179.42188 24.7375 179.64062 24.55Q179.85938 24.346874 180.35938 24.346874L182.89062 24.346874ZM190.90625 21.690624L190.90625 29.14375L192.57812 29.14375Q193.09375 29.14375 193.29688 29.346874Q193.51562 29.534374 193.51562 29.846874Q193.51562 30.159374 193.29688 30.3625Q193.09375 30.55 192.57812 30.55L187.8125 30.55Q187.3125 30.55 187.09375 30.3625Q186.875 30.159374 186.875 29.846874Q186.875 29.534374 187.09375 29.346874Q187.3125 29.14375 187.8125 29.14375L189.5 29.14375L189.5 23.08125L188.375 23.08125Q187.875 23.08125 187.65625 22.89375Q187.4375 22.690624 187.4375 22.378124Q187.4375 22.065624 187.64062 21.878124Q187.85938 21.690624 188.375 21.690624L190.90625 21.690624ZM201.71875 28.159374L195.96875 28.159374Q196.1875 28.70625 196.73438 29.05Q197.29688 29.378124 198.25 29.378124Q199.03125 29.378124 200.32812 29.034374Q200.85938 28.909374 201.0625 28.909374Q201.34375 28.909374 201.53125 29.1125Q201.71875 29.3 201.71875 29.596874Q201.71875 29.878124 201.51562 30.065624Q201.25 30.315624 200.1875 30.55Q199.125 30.76875 198.15625 30.76875Q196.46875 30.76875 195.45312 29.83125Q194.45312 28.878124 194.45312 27.4875Q194.45312 26.003124 195.53125 25.08125Q196.625 24.159374 198.04688 24.159374Q198.90625 24.159374 199.625 24.45625Q200.34375 24.753124 200.6875 25.1125Q201.17188 25.6125 201.5 26.3625Q201.71875 26.878124 201.71875 27.565624L201.71875 28.159374ZM200.17188 26.753124Q199.84375 26.159374 199.32812 25.8625Q198.8125 25.565624 198.09375 25.565624Q197.375 25.565624 196.85938 25.8625Q196.34375 26.159374 196.01562 26.753124L200.17188 26.753124ZM204.45312 24.909374L204.45312 29.14375L204.95312 29.14375Q205.45312 29.14375 205.67188 29.346874Q205.89062 29.534374 205.89062 29.846874Q205.89062 30.159374 205.67188 30.3625Q205.45312 30.55 204.95312 30.55L203.10938 30.55Q202.60938 30.55 202.39062 30.3625Q202.17188 30.159374 202.17188 29.846874Q202.17188 29.55 202.39062 29.346874Q202.60938 29.14375 203.04688 29.14375L203.04688 23.659374L202.82812 23.659374Q202.32812 23.659374 202.10938 23.471874Q201.89062 23.26875 201.89062 22.95625Q201.89062 22.64375 202.10938 22.45625Q202.32812 22.253124 202.82812 22.253124L204.45312 22.26875L208.03125 27.878124L208.03125 23.659374L207.53125 23.659374Q207.01562 23.659374 206.79688 23.471874Q206.59375 23.26875 206.59375 22.95625Q206.59375 22.64375 206.79688 22.45625Q207.01562 22.253124 207.53125 22.253124L209.35938 22.26875Q209.875 22.26875 210.07812 22.45625Q210.29688 22.64375 210.29688 22.95625Q210.29688 23.26875 210.07812 23.471874Q209.875 23.659374 209.4375 23.659374L209.4375 30.55L208.04688 30.55L204.45312 24.909374ZM217.71875 28.159374L211.96875 28.159374Q212.1875 28.70625 212.73438 29.05Q213.29688 29.378124 214.25 29.378124Q215.03125 29.378124 216.32812 29.034374Q216.85938 28.909374 217.0625 28.909374Q217.34375 28.909374 217.53125 29.1125Q217.71875 29.3 217.71875 29.596874Q217.71875 29.878124 217.51562 30.065624Q217.25 30.315624 216.1875 30.55Q215.125 30.76875 214.15625 30.76875Q212.46875 30.76875 211.45312 29.83125Q210.45312 28.878124 210.45312 27.4875Q210.45312 26.003124 211.53125 25.08125Q212.625 24.159374 214.04688 24.159374Q214.90625 24.159374 215.625 24.45625Q216.34375 24.753124 216.6875 25.1125Q217.17188 25.6125 217.5 26.3625Q217.71875 26.878124 217.71875 27.565624L217.71875 28.159374ZM216.17188 26.753124Q215.84375 26.159374 215.32812 25.8625Q214.8125 25.565624 214.09375 25.565624Q213.375 25.565624 212.85938 25.8625Q212.34375 26.159374 212.01562 26.753124L216.17188 26.753124ZM221.85938 25.7375L221.85938 28.55Q221.85938 29.003124 222.04688 29.14375Q222.32812 29.378124 223.0625 29.378124Q224.14062 29.378124 225.04688 28.909374Q225.39062 28.7375 225.59375 28.7375Q225.875 28.7375 226.0625 28.940624Q226.26562 29.14375 226.26562 29.440624Q226.26562 29.721874 226.04688 29.909374Q225.71875 30.2375 224.73438 30.503124Q223.75 30.76875 223.0625 30.76875Q221.76562 30.76875 221.10938 30.20625Q220.45312 29.64375 220.45312 28.83125L220.45312 25.7375L219.95312 25.7375Q219.4375 25.7375 219.21875 25.55Q219.01562 25.346874 219.01562 25.034374Q219.01562 24.7375 219.21875 24.55Q219.4375 24.346874 219.95312 24.346874L220.45312 24.346874L220.45312 23.08125Q220.45312 22.565624 220.64062 22.3625Q220.84375 22.14375 221.15625 22.14375Q221.46875 22.14375 221.65625 22.3625Q221.85938 22.565624 221.85938 23.08125L221.85938 24.346874L224.45312 24.346874Q224.95312 24.346874 225.17188 24.55Q225.39062 24.7375 225.39062 25.05Q225.39062 25.346874 225.17188 25.55Q224.95312 25.7375 224.45312 25.7375L221.85938 25.7375ZM230.20312 28.503124L232.23438 23.659374L231.90625 23.659374Q231.40625 23.659374 231.1875 23.471874Q230.96875 23.26875 230.96875 22.95625Q230.96875 22.64375 231.1875 22.45625Q231.40625 22.253124 231.90625 22.253124L233.78125 22.26875Q234.29688 22.26875 234.5 22.45625Q234.71875 22.64375 234.71875 22.95625Q234.71875 23.33125 234.39062 23.55Q234.23438 23.659374 233.75 23.659374L230.875 30.55L229.53125 30.55L226.65625 23.659374Q226.17188 23.659374 226.0 23.55Q225.67188 23.346874 225.67188 22.95625Q225.67188 22.64375 225.89062 22.45625Q226.10938 22.253124 226.60938 22.253124L228.51562 22.26875Q229.01562 22.26875 229.21875 22.45625Q229.4375 22.64375 229.4375 22.95625Q229.4375 23.26875 229.21875 23.471874Q229.01562 23.659374 228.51562 23.659374L228.1875 23.659374L230.20312 28.503124ZM236.89062 29.14375L239.96875 29.14375Q240.21875 28.940624 240.4375 28.940624Q240.76562 28.940624 240.95312 29.159374Q241.14062 29.3625 241.14062 29.878124L241.14062 30.55L234.75 30.55L234.75 29.065624Q238.54688 25.940624 239.32812 25.05Q239.71875 24.58125 239.71875 24.175Q239.71875 23.659374 239.26562 23.26875Q238.82812 22.878124 238.07812 22.878124Q237.32812 22.878124 236.82812 23.315624Q236.57812 23.55 236.40625 24.003124Q236.3125 24.3 236.14062 24.425Q235.98438 24.534374 235.73438 24.534374Q235.45312 24.534374 235.23438 24.33125Q235.03125 24.128124 235.03125 23.8625Q235.03125 23.440624 235.40625 22.83125Q235.79688 22.221874 236.51562 21.846874Q237.25 21.471874 238.10938 21.471874Q239.42188 21.471874 240.26562 22.284374Q241.125 23.08125 241.125 24.221874Q241.125 24.8 240.875 25.3Q240.64062 25.8 239.71875 26.675Q238.98438 27.3625 236.89062 29.14375Z" fill-rule="nonzero"/><path fill="#ffff00" d="M270.0 27.05C270.0 30.363708 267.31372 33.05 264.0 33.05C260.68628 33.05 258.0 30.363708 258.0 27.05C258.0 23.736292 260.68628 21.05 264.0 21.05C267.31372 21.05 270.0 23.736292 270.0 27.05Z" fill-rule="nonzero"/><path fill="#1a1a1a" d="M279.0625 29.14375L279.0625 23.659374Q278.625 23.659374 278.40625 23.471874Q278.20312 23.26875 278.20312 22.95625Q278.20312 22.64375 278.40625 22.45625Q278.625 22.253124 279.14062 22.253124L282.0625 22.26875Q282.75 22.26875 283.40625 22.51875Q284.0625 22.76875 284.45312 23.159374Q284.75 23.45625 285.07812 23.971874Q285.40625 24.471874 285.5625 24.9875Q285.73438 25.4875 285.73438 26.221874L285.73438 26.89375Q285.73438 27.784374 285.42188 28.471874Q285.125 29.159374 284.64062 29.596874Q284.15625 30.01875 283.71875 30.221874Q283.03125 30.55 281.95312 30.55L279.14062 30.55Q278.625 30.55 278.40625 30.3625Q278.20312 30.159374 278.20312 29.846874Q278.20312 29.534374 278.40625 29.346874Q278.625 29.14375 279.0625 29.14375ZM280.46875 29.14375L281.95312 29.14375Q282.79688 29.14375 283.21875 28.909374Q283.76562 28.596874 284.04688 28.1125Q284.32812 27.628124 284.32812 26.846874L284.32812 26.190624Q284.32812 25.51875 284.07812 25.01875Q283.6875 24.253124 283.1875 23.95625Q282.6875 23.659374 281.9375 23.659374L280.46875 23.659374L280.46875 29.14375ZM293.71875 28.159374L287.96875 28.159374Q288.1875 28.70625 288.73438 29.05Q289.29688 29.378124 290.25 29.378124Q291.03125 29.378124 292.32812 29.034374Q292.85938 28.909374 293.0625 28.909374Q293.34375 28.909374 293.53125 29.1125Q293.71875 29.3 293.71875 29.596874Q293.71875 29.878124 293.51562 30.065624Q293.25 30.315624 292.1875 30.55Q291.125 30.76875 290.15625 30.76875Q288.46875 30.76875 287.45312 29.83125Q286.45312 28.878124 286.45312 27.4875Q286.45312 26.003124 287.53125 25.08125Q288.625 24.159374 290.04688 24.159374Q290.90625 24.159374 291.625 24.45625Q292.34375 24.753124 292.6875 25.1125Q293.17188 25.6125 293.5 26.3625Q293.71875 26.878124 293.71875 27.565624L293.71875 28.159374ZM292.17188 26.753124Q291.84375 26.159374 291.32812 25.8625Q290.8125 25.565624 290.09375 25.565624Q289.375 25.565624 288.85938 25.8625Q288.34375 26.159374 288.01562 26.753124L292.17188 26.753124ZM296.78125 24.346874L296.78125 24.815624Q297.17188 24.4875 297.625 24.33125Q298.09375 24.159374 298.625 24.159374Q299.875 24.159374 300.59375 24.925Q301.17188 25.55 301.17188 26.55L301.17188 29.14375Q301.60938 29.14375 301.82812 29.346874Q302.04688 29.534374 302.04688 29.846874Q302.04688 30.159374 301.82812 30.3625Q301.60938 30.55 301.10938 30.55L299.84375 30.55Q299.32812 30.55 299.10938 30.3625Q298.90625 30.159374 298.90625 29.846874Q298.90625 29.534374 299.10938 29.346874Q299.32812 29.14375 299.76562 29.14375L299.76562 26.503124Q299.76562 26.05 299.53125 25.83125Q299.20312 25.565624 298.5625 25.565624Q298.07812 25.565624 297.70312 25.753124Q297.34375 25.940624 296.78125 26.55L296.78125 29.14375Q297.32812 29.14375 297.48438 29.253124Q297.8125 29.45625 297.8125 29.846874Q297.8125 30.159374 297.59375 30.3625Q297.39062 30.55 296.875 30.55L295.28125 30.55Q294.78125 30.55 294.5625 30.3625Q294.34375 30.159374 294.34375 29.846874Q294.34375 29.45625 294.67188 29.253124Q294.84375 29.14375 295.375 29.14375L295.375 25.7375Q294.9375 25.7375 294.71875 25.55Q294.51562 25.346874 294.51562 25.034374Q294.51562 24.7375 294.71875 24.55Q294.9375 24.346874 295.45312 24.346874L296.78125 24.346874ZM307.71875 25.9875Q307.375 25.76875 307.0 25.675Q306.625 25.565624 306.21875 25.565624Q305.39062 25.565624 304.92188 25.83125Q304.70312 25.940624 304.70312 26.08125Q304.70312 26.2375 305.0 26.39375Q305.21875 26.503124 305.96875 26.596874Q307.35938 26.784374 307.90625 26.9875Q308.625 27.2375 309.01562 27.7375Q309.40625 28.2375 309.40625 28.784374Q309.40625 29.534374 308.75 30.05Q307.79688 30.76875 306.28125 30.76875Q305.67188 30.76875 305.15625 30.659374Q304.64062 30.565624 304.20312 30.3625Q304.10938 30.440624 303.98438 30.503124Q303.875 30.55 303.75 30.55Q303.42188 30.55 303.21875 30.33125Q303.03125 30.1125 303.03125 29.6125L303.03125 29.128124Q303.03125 28.628124 303.21875 28.409374Q303.42188 28.190624 303.73438 28.190624Q303.98438 28.190624 304.15625 28.33125Q304.32812 28.471874 304.42188 28.815624Q304.75 29.096874 305.20312 29.2375Q305.65625 29.378124 306.23438 29.378124Q307.20312 29.378124 307.73438 29.065624Q307.98438 28.925 307.98438 28.753124Q307.98438 28.4875 307.625 28.3Q307.26562 28.128124 306.125 28.003124Q304.4375 27.83125 303.875 27.315624Q303.3125 26.83125 303.3125 26.096874Q303.3125 25.346874 303.9375 24.846874Q304.79688 24.159374 306.20312 24.159374Q306.6875 24.159374 307.125 24.253124Q307.57812 24.346874 307.98438 24.534374Q308.125 24.440624 308.23438 24.39375Q308.34375 24.346874 308.4375 24.346874Q308.73438 24.346874 308.92188 24.565624Q309.10938 24.76875 309.10938 25.284374L309.10938 25.628124Q309.10938 26.08125 309.0 26.2375Q308.78125 26.55 308.40625 26.55Q308.15625 26.55 307.95312 26.39375Q307.76562 26.2375 307.71875 25.9875ZM317.71875 28.159374L311.96875 28.159374Q312.1875 28.70625 312.73438 29.05Q313.29688 29.378124 314.25 29.378124Q315.03125 29.378124 316.32812 29.034374Q316.85938 28.909374 317.0625 28.909374Q317.34375 28.909374 317.53125 29.1125Q317.71875 29.3 317.71875 29.596874Q317.71875 29.878124 317.51562 30.065624Q317.25 30.315624 316.1875 30.55Q315.125 30.76875 314.15625 30.76875Q312.46875 30.76875 311.45312 29.83125Q310.45312 28.878124 310.45312 27.4875Q310.45312 26.003124 311.53125 25.08125Q312.625 24.159374 314.04688 24.159374Q314.90625 24.159374 315.625 24.45625Q316.34375 24.753124 316.6875 25.1125Q317.17188 25.6125 317.5 26.3625Q317.71875 26.878124 317.71875 27.565624L317.71875 28.159374ZM316.17188 26.753124Q315.84375 26.159374 315.32812 25.8625Q314.8125 25.565624 314.09375 25.565624Q313.375 25.565624 312.85938 25.8625Q312.34375 26.159374 312.01562 26.753124L316.17188 26.753124ZM320.45312 24.909374L320.45312 29.14375L320.95312 29.14375Q321.45312 29.14375 321.67188 29.346874Q321.89062 29.534374 321.89062 29.846874Q321.89062 30.159374 321.67188 30.3625Q321.45312 30.55 320.95312 30.55L319.10938 30.55Q318.60938 30.55 318.39062 30.3625Q318.17188 30.159374 318.17188 29.846874Q318.17188 29.55 318.39062 29.346874Q318.60938 29.14375 319.04688 29.14375L319.04688 23.659374L318.82812 23.659374Q318.32812 23.659374 318.10938 23.471874Q317.89062 23.26875 317.89062 22.95625Q317.89062 22.64375 318.10938 22.45625Q318.32812 22.253124 318.82812 22.253124L320.45312 22.26875L324.03125 27.878124L324.03125 23.659374L323.53125 23.659374Q323.01562 23.659374 322.79688 23.471874Q322.59375 23.26875 322.59375 22.95625Q322.59375 22.64375 322.79688 22.45625Q323.01562 22.253124 323.53125 22.253124L325.35938 22.26875Q325.875 22.26875 326.07812 22.45625Q326.29688 22.64375 326.29688 22.95625Q326.29688 23.26875 326.07812 23.471874Q325.875 23.659374 325.4375 23.659374L325.4375 30.55L324.04688 30.55L320.45312 24.909374ZM333.71875 28.159374L327.96875 28.159374Q328.1875 28.70625 328.73438 29.05Q329.29688 29.378124 330.25 29.378124Q331.03125 29.378124 332.32812 29.034374Q332.85938 28.909374 333.0625 28.909374Q333.34375 28.909374 333.53125 29.1125Q333.71875 29.3 333.71875 29.596874Q333.71875 29.878124 333.51562 30.065624Q333.25 30.315624 332.1875 30.55Q331.125 30.76875 330.15625 30.76875Q328.46875 30.76875 327.45312 29.83125Q326.45312 28.878124 326.45312 27.4875Q326.45312 26.003124 327.53125 25.08125Q328.625 24.159374 330.04688 24.159374Q330.90625 24.159374 331.625 24.45625Q332.34375 24.753124 332.6875 25.1125Q333.17188 25.6125 333.5 26.3625Q333.71875 26.878124 333.71875 27.565624L333.71875 28.159374ZM332.17188 26.753124Q331.84375 26.159374 331.32812 25.8625Q330.8125 25.565624 330.09375 25.565624Q329.375 25.565624 328.85938 25.8625Q328.34375 26.159374 328.01562 26.753124L332.17188 26.753124ZM337.85938 25.7375L337.85938 28.55Q337.85938 29.003124 338.04688 29.14375Q338.32812 29.378124 339.0625 29.378124Q340.14062 29.378124 341.04688 28.909374Q341.39062 28.7375 341.59375 28.7375Q341.875 28.7375 342.0625 28.940624Q342.26562 29.14375 342.26562 29.440624Q342.26562 29.721874 342.04688 29.909374Q341.71875 30.2375 340.73438 30.503124Q339.75 30.76875 339.0625 30.76875Q337.76562 30.76875 337.10938 30.20625Q336.45312 29.64375 336.45312 28.83125L336.45312 25.7375L335.95312 25.7375Q335.4375 25.7375 335.21875 25.55Q335.01562 25.346874 335.01562 25.034374Q335.01562 24.7375 335.21875 24.55Q335.4375 24.346874 335.95312 24.346874L336.45312 24.346874L336.45312 23.08125Q336.45312 22.565624 336.64062 22.3625Q336.84375 22.14375 337.15625 22.14375Q337.46875 22.14375 337.65625 22.3625Q337.85938 22.565624 337.85938 23.08125L337.85938 24.346874L340.45312 24.346874Q340.95312 24.346874 341.17188 24.55Q341.39062 24.7375 341.39062 25.05Q341.39062 25.346874 341.17188 25.55Q340.95312 25.7375 340.45312 25.7375L337.85938 25.7375ZM344.89062 29.14375L347.96875 29.14375Q348.21875 28.940624 348.4375 28.940624Q348.76562 28.940624 348.95312 29.159374Q349.14062 29.3625 349.14062 29.878124L349.14062 30.55L342.75 30.55L342.75 29.065624Q346.54688 25.940624 347.32812 25.05Q347.71875 24.58125 347.71875 24.175Q347.71875 23.659374 347.26562 23.26875Q346.82812 22.878124 346.07812 22.878124Q345.32812 22.878124 344.82812 23.315624Q344.57812 23.55 344.40625 24.003124Q344.3125 24.3 344.14062 24.425Q343.98438 24.534374 343.73438 24.534374Q343.45312 24.534374 343.23438 24.33125Q343.03125 24.128124 343.03125 23.8625Q343.03125 23.440624 343.40625 22.83125Q343.79688 22.221874 344.51562 21.846874Q345.25 21.471874 346.10938 21.471874Q347.42188 21.471874 348.26562 22.284374Q349.125 23.08125 349.125 24.221874Q349.125 24.8 348.875 25.3Q348.64062 25.8 347.71875 26.675Q346.98438 27.3625 344.89062 29.14375ZM357.26562 25.346874L357.26562 26.878124Q357.26562 28.253124 356.46875 29.503124Q355.6875 30.753124 354.21875 30.753124Q353.35938 30.753124 352.76562 30.378124Q352.1875 30.003124 351.67188 29.003124Q351.15625 28.003124 351.15625 26.878124L351.15625 25.346874Q351.15625 23.9875 351.9375 22.7375Q352.71875 21.471874 354.1875 21.471874Q355.03125 21.471874 355.60938 21.846874Q356.20312 22.221874 356.73438 23.221874Q357.26562 24.221874 357.26562 25.346874ZM355.85938 25.346874Q355.85938 24.20625 355.21875 23.346874Q354.85938 22.878124 354.20312 22.878124Q353.5625 22.878124 353.15625 23.39375Q352.54688 24.190624 352.54688 25.346874L352.54688 26.878124Q352.54688 28.034374 353.1875 28.878124Q353.54688 29.346874 354.21875 29.346874Q354.84375 29.346874 355.25 28.83125Q355.85938 28.05 355.85938 26.878124L355.85938 25.346874ZM362.92188 21.471874L362.92188 29.14375L364.32812 29.14375Q364.84375 29.14375 365.04688 29.346874Q365.26562 29.534374 365.26562 29.846874Q365.26562 30.159374 365.04688 30.3625Q364.84375 30.55 364.32812 30.55L360.09375 30.55Q359.59375 30.55 359.375 30.3625Q359.15625 30.159374 359.15625 29.846874Q359.15625 29.534374 359.375 29.346874Q359.59375 29.14375 360.09375 29.14375L361.51562 29.14375L361.51562 23.3L360.26562 23.628124Q359.96875 23.70625 359.8125 23.70625Q359.54688 23.70625 359.34375 23.503124Q359.15625 23.284374 359.15625 22.9875Q359.15625 22.70625 359.29688 22.55Q359.4375 22.378124 359.90625 22.253124L362.92188 21.471874Z" fill-rule="nonzero"/><path fill="#004561" d="M394.0 27.05C394.0 30.363708 391.31372 33.05 388.0 33.05C384.68628 33.05 382.0 30.363708 382.0 27.05C382.0 23.736292 384.68628 21.05 388.0 21.05C391.31372 21.05 394.0 23.736292 394.0 27.05Z" fill-rule="nonzero"/><path fill="#1a1a1a" d="M404.75 27.378124L404.75 29.14375L405.26562 29.14375Q405.76562 29.14375 405.98438 29.346874Q406.20312 29.534374 406.20312 29.846874Q406.20312 30.159374 405.98438 30.3625Q405.76562 30.55 405.26562 30.55L403.14062 30.55Q402.625 30.55 402.40625 30.3625Q402.20312 30.159374 402.20312 29.846874Q402.20312 29.534374 402.42188 29.346874Q402.64062 29.14375 403.14062 29.14375L403.35938 29.14375L403.35938 23.659374L403.14062 23.659374Q402.625 23.659374 402.40625 23.471874Q402.20312 23.26875 402.20312 22.95625Q402.20312 22.64375 402.40625 22.45625Q402.625 22.253124 403.14062 22.253124L406.3125 22.26875Q407.79688 22.26875 408.60938 23.003124Q409.42188 23.7375 409.42188 24.784374Q409.42188 25.440624 409.03125 25.9875Q408.65625 26.51875 407.89062 26.940624Q408.32812 27.315624 408.84375 27.925Q409.15625 28.315624 409.6875 29.14375Q410.21875 29.14375 410.39062 29.253124Q410.70312 29.471874 410.70312 29.846874Q410.70312 30.159374 410.48438 30.3625Q410.26562 30.55 409.76562 30.55L408.96875 30.55Q407.26562 27.925 406.14062 27.378124L404.75 27.378124ZM404.75 25.9875L405.84375 25.9875Q406.45312 25.9875 406.9375 25.8Q407.57812 25.55 407.79688 25.284374Q408.01562 25.003124 408.01562 24.7375Q408.01562 24.346874 407.59375 24.003124Q407.17188 23.659374 406.35938 23.659374L404.75 23.659374L404.75 25.9875ZM417.71875 28.159374L411.96875 28.159374Q412.1875 28.70625 412.73438 29.05Q413.29688 29.378124 414.25 29.378124Q415.03125 29.378124 416.32812 29.034374Q416.85938 28.909374 417.0625 28.909374Q417.34375 28.909374 417.53125 29.1125Q417.71875 29.3 417.71875 29.596874Q417.71875 29.878124 417.51562 30.065624Q417.25 30.315624 416.1875 30.55Q415.125 30.76875 414.15625 30.76875Q412.46875 30.76875 411.45312 29.83125Q410.45312 28.878124 410.45312 27.4875Q410.45312 26.003124 411.53125 25.08125Q412.625 24.159374 414.04688 24.159374Q414.90625 24.159374 415.625 24.45625Q416.34375 24.753124 416.6875 25.1125Q417.17188 25.6125 417.5 26.3625Q417.71875 26.878124 417.71875 27.565624L417.71875 28.159374ZM416.17188 26.753124Q415.84375 26.159374 415.32812 25.8625Q414.8125 25.565624 414.09375 25.565624Q413.375 25.565624 412.85938 25.8625Q412.34375 26.159374 412.01562 26.753124L416.17188 26.753124ZM423.71875 25.9875Q423.375 25.76875 423.0 25.675Q422.625 25.565624 422.21875 25.565624Q421.39062 25.565624 420.92188 25.83125Q420.70312 25.940624 420.70312 26.08125Q420.70312 26.2375 421.0 26.39375Q421.21875 26.503124 421.96875 26.596874Q423.35938 26.784374 423.90625 26.9875Q424.625 27.2375 425.01562 27.7375Q425.40625 28.2375 425.40625 28.784374Q425.40625 29.534374 424.75 30.05Q423.79688 30.76875 422.28125 30.76875Q421.67188 30.76875 421.15625 30.659374Q420.64062 30.565624 420.20312 30.3625Q420.10938 30.440624 419.98438 30.503124Q419.875 30.55 419.75 30.55Q419.42188 30.55 419.21875 30.33125Q419.03125 30.1125 419.03125 29.6125L419.03125 29.128124Q419.03125 28.628124 419.21875 28.409374Q419.42188 28.190624 419.73438 28.190624Q419.98438 28.190624 420.15625 28.33125Q420.32812 28.471874 420.42188 28.815624Q420.75 29.096874 421.20312 29.2375Q421.65625 29.378124 422.23438 29.378124Q423.20312 29.378124 423.73438 29.065624Q423.98438 28.925 423.98438 28.753124Q423.98438 28.4875 423.625 28.3Q423.26562 28.128124 422.125 28.003124Q420.4375 27.83125 419.875 27.315624Q419.3125 26.83125 419.3125 26.096874Q419.3125 25.346874 419.9375 24.846874Q420.79688 24.159374 422.20312 24.159374Q422.6875 24.159374 423.125 24.253124Q423.57812 24.346874 423.98438 24.534374Q424.125 24.440624 424.23438 24.39375Q424.34375 24.346874 424.4375 24.346874Q424.73438 24.346874 424.92188 24.565624Q425.10938 24.76875 425.10938 25.284374L425.10938 25.628124Q425.10938 26.08125 425.0 26.2375Q424.78125 26.55 424.40625 26.55Q424.15625 26.55 423.95312 26.39375Q423.76562 26.2375 423.71875 25.9875ZM428.45312 24.909374L428.45312 29.14375L428.95312 29.14375Q429.45312 29.14375 429.67188 29.346874Q429.89062 29.534374 429.89062 29.846874Q429.89062 30.159374 429.67188 30.3625Q429.45312 30.55 428.95312 30.55L427.10938 30.55Q426.60938 30.55 426.39062 30.3625Q426.17188 30.159374 426.17188 29.846874Q426.17188 29.55 426.39062 29.346874Q426.60938 29.14375 427.04688 29.14375L427.04688 23.659374L426.82812 23.659374Q426.32812 23.659374 426.10938 23.471874Q425.89062 23.26875 425.89062 22.95625Q425.89062 22.64375 426.10938 22.45625Q426.32812 22.253124 426.82812 22.253124L428.45312 22.26875L432.03125 27.878124L432.03125 23.659374L431.53125 23.659374Q431.01562 23.659374 430.79688 23.471874Q430.59375 23.26875 430.59375 22.95625Q430.59375 22.64375 430.79688 22.45625Q431.01562 22.253124 431.53125 22.253124L433.35938 22.26875Q433.875 22.26875 434.07812 22.45625Q434.29688 22.64375 434.29688 22.95625Q434.29688 23.26875 434.07812 23.471874Q433.875 23.659374 433.4375 23.659374L433.4375 30.55L432.04688 30.55L428.45312 24.909374ZM441.71875 28.159374L435.96875 28.159374Q436.1875 28.70625 436.73438 29.05Q437.29688 29.378124 438.25 29.378124Q439.03125 29.378124 440.32812 29.034374Q440.85938 28.909374 441.0625 28.909374Q441.34375 28.909374 441.53125 29.1125Q441.71875 29.3 441.71875 29.596874Q441.71875 29.878124 441.51562 30.065624Q441.25 30.315624 440.1875 30.55Q439.125 30.76875 438.15625 30.76875Q436.46875 30.76875 435.45312 29.83125Q434.45312 28.878124 434.45312 27.4875Q434.45312 26.003124 435.53125 25.08125Q436.625 24.159374 438.04688 24.159374Q438.90625 24.159374 439.625 24.45625Q440.34375 24.753124 440.6875 25.1125Q441.17188 25.6125 441.5 26.3625Q441.71875 26.878124 441.71875 27.565624L441.71875 28.159374ZM440.17188 26.753124Q439.84375 26.159374 439.32812 25.8625Q438.8125 25.565624 438.09375 25.565624Q437.375 25.565624 436.85938 25.8625Q436.34375 26.159374 436.01562 26.753124L440.17188 26.753124ZM445.85938 25.7375L445.85938 28.55Q445.85938 29.003124 446.04688 29.14375Q446.32812 29.378124 447.0625 29.378124Q448.14062 29.378124 449.04688 28.909374Q449.39062 28.7375 449.59375 28.7375Q449.875 28.7375 450.0625 28.940624Q450.26562 29.14375 450.26562 29.440624Q450.26562 29.721874 450.04688 29.909374Q449.71875 30.2375 448.73438 30.503124Q447.75 30.76875 447.0625 30.76875Q445.76562 30.76875 445.10938 30.20625Q444.45312 29.64375 444.45312 28.83125L444.45312 25.7375L443.95312 25.7375Q443.4375 25.7375 443.21875 25.55Q443.01562 25.346874 443.01562 25.034374Q443.01562 24.7375 443.21875 24.55Q443.4375 24.346874 443.95312 24.346874L444.45312 24.346874L444.45312 23.08125Q444.45312 22.565624 444.64062 22.3625Q444.84375 22.14375 445.15625 22.14375Q445.46875 22.14375 445.65625 22.3625Q445.85938 22.565624 445.85938 23.08125L445.85938 24.346874L448.45312 24.346874Q448.95312 24.346874 449.17188 24.55Q449.39062 24.7375 449.39062 25.05Q449.39062 25.346874 449.17188 25.55Q448.95312 25.7375 448.45312 25.7375L445.85938 25.7375ZM453.01562 23.1125L453.01562 24.76875Q453.79688 24.534374 454.4375 24.534374Q455.73438 24.534374 456.57812 25.409374Q457.4375 26.284374 457.4375 27.690624Q457.4375 29.128124 456.5625 29.940624Q455.70312 30.753124 453.92188 30.753124Q452.35938 30.753124 451.4375 30.159374Q450.90625 29.815624 450.90625 29.378124Q450.90625 29.096874 451.10938 28.89375Q451.3125 28.675 451.60938 28.675Q451.84375 28.675 452.125 28.909374Q452.40625 29.128124 452.71875 29.221874Q453.15625 29.346874 453.82812 29.346874Q455.10938 29.346874 455.5625 28.940624Q456.03125 28.534374 456.03125 27.70625Q456.03125 26.878124 455.57812 26.409374Q455.14062 25.925 454.4375 25.925Q453.67188 25.925 452.70312 26.425Q452.48438 26.534374 452.32812 26.534374Q452.03125 26.534374 451.82812 26.315624Q451.625 26.096874 451.625 25.753124L451.625 21.70625L455.90625 21.70625Q456.40625 21.70625 456.625 21.909374Q456.84375 22.096874 456.84375 22.409374Q456.84375 22.721874 456.625 22.925Q456.40625 23.1125 455.90625 23.1125L453.01562 23.1125ZM465.26562 25.346874L465.26562 26.878124Q465.26562 28.253124 464.46875 29.503124Q463.6875 30.753124 462.21875 30.753124Q461.35938 30.753124 460.76562 30.378124Q460.1875 30.003124 459.67188 29.003124Q459.15625 28.003124 459.15625 26.878124L459.15625 25.346874Q459.15625 23.9875 459.9375 22.7375Q460.71875 21.471874 462.1875 21.471874Q463.03125 21.471874 463.60938 21.846874Q464.20312 22.221874 464.73438 23.221874Q465.26562 24.221874 465.26562 25.346874ZM463.85938 25.346874Q463.85938 24.20625 463.21875 23.346874Q462.85938 22.878124 462.20312 22.878124Q461.5625 22.878124 461.15625 23.39375Q460.54688 24.190624 460.54688 25.346874L460.54688 26.878124Q460.54688 28.034374 461.1875 28.878124Q461.54688 29.346874 462.21875 29.346874Q462.84375 29.346874 463.25 28.83125Q463.85938 28.05 463.85938 26.878124L463.85938 25.346874Z" fill-rule="nonzero"/></svg>